<?xml version="1.0" encoding="UTF-8" standalone="no"?>
<!-- Created with Inkscape (http://www.inkscape.org/) -->

<svg
   version="1.1"
   id="svg3279"
   width="276.63467"
   height="270.08133"
   viewBox="0 0 276.63467 270.08133"
   sodipodi:docname="conda_env_7.pdf"
   xmlns:inkscape="http://www.inkscape.org/namespaces/inkscape"
   xmlns:sodipodi="http://sodipodi.sourceforge.net/DTD/sodipodi-0.dtd"
   xmlns="http://www.w3.org/2000/svg"
   xmlns:svg="http://www.w3.org/2000/svg">
  <defs
     id="defs3283">
    <clipPath
       clipPathUnits="userSpaceOnUse"
       id="clipPath3307">
      <path
         d="M 0,0 H 208 V 203 H 0 Z"
         id="path3305" />
    </clipPath>
    <clipPath
       clipPathUnits="userSpaceOnUse"
       id="clipPath3323">
      <path
         d="M 0,0 H 208 V 203 H 0 Z"
         id="path3321" />
    </clipPath>
    <clipPath
       clipPathUnits="userSpaceOnUse"
       id="clipPath3359">
      <path
         d="M 0,0 H 208 V 203 H 0 Z"
         id="path3357" />
    </clipPath>
    <clipPath
       clipPathUnits="userSpaceOnUse"
       id="clipPath3375">
      <path
         d="M 0,0 H 208 V 203 H 0 Z"
         id="path3373" />
    </clipPath>
    <clipPath
       clipPathUnits="userSpaceOnUse"
       id="clipPath3403">
      <path
         d="M 0,0 H 208 V 203 H 0 Z"
         id="path3401" />
    </clipPath>
    <clipPath
       clipPathUnits="userSpaceOnUse"
       id="clipPath3419">
      <path
         d="M 0,0 H 208 V 203 H 0 Z"
         id="path3417" />
    </clipPath>
    <clipPath
       clipPathUnits="userSpaceOnUse"
       id="clipPath3447">
      <path
         d="M 0,0 H 208 V 203 H 0 Z"
         id="path3445" />
    </clipPath>
    <clipPath
       clipPathUnits="userSpaceOnUse"
       id="clipPath3463">
      <path
         d="M 0,0 H 208 V 203 H 0 Z"
         id="path3461" />
    </clipPath>
    <clipPath
       clipPathUnits="userSpaceOnUse"
       id="clipPath3491">
      <path
         d="M 0,0 H 208 V 203 H 0 Z"
         id="path3489" />
    </clipPath>
    <clipPath
       clipPathUnits="userSpaceOnUse"
       id="clipPath3507">
      <path
         d="M 0,0 H 208 V 203 H 0 Z"
         id="path3505" />
    </clipPath>
    <clipPath
       clipPathUnits="userSpaceOnUse"
       id="clipPath3535">
      <path
         d="M 0,0 H 208 V 203 H 0 Z"
         id="path3533" />
    </clipPath>
    <clipPath
       clipPathUnits="userSpaceOnUse"
       id="clipPath3563">
      <path
         d="M 0,0 H 208 V 203 H 0 Z"
         id="path3561" />
    </clipPath>
    <clipPath
       clipPathUnits="userSpaceOnUse"
       id="clipPath3579">
      <path
         d="M 0,0 H 208 V 203 H 0 Z"
         id="path3577" />
    </clipPath>
    <clipPath
       clipPathUnits="userSpaceOnUse"
       id="clipPath3615">
      <path
         d="M 0,0 H 208 V 203 H 0 Z"
         id="path3613" />
    </clipPath>
    <clipPath
       clipPathUnits="userSpaceOnUse"
       id="clipPath3631">
      <path
         d="M 0,0 H 208 V 203 H 0 Z"
         id="path3629" />
    </clipPath>
    <clipPath
       clipPathUnits="userSpaceOnUse"
       id="clipPath3665">
      <path
         d="M 0,0 H 208 V 203 H 0 Z"
         id="path3663" />
    </clipPath>
    <clipPath
       clipPathUnits="userSpaceOnUse"
       id="clipPath3681">
      <path
         d="M 0,0 H 208 V 203 H 0 Z"
         id="path3679" />
    </clipPath>
    <clipPath
       clipPathUnits="userSpaceOnUse"
       id="clipPath3703">
      <path
         d="M 0,0 H 208 V 203 H 0 Z"
         id="path3701" />
    </clipPath>
    <clipPath
       clipPathUnits="userSpaceOnUse"
       id="clipPath3719">
      <path
         d="M 0,0 H 208 V 203 H 0 Z"
         id="path3717" />
    </clipPath>
    <clipPath
       clipPathUnits="userSpaceOnUse"
       id="clipPath3739">
      <path
         d="M 0,0 H 208 V 203 H 0 Z"
         id="path3737" />
    </clipPath>
    <clipPath
       clipPathUnits="userSpaceOnUse"
       id="clipPath3755">
      <path
         d="M 0,0 H 208 V 203 H 0 Z"
         id="path3753" />
    </clipPath>
    <clipPath
       clipPathUnits="userSpaceOnUse"
       id="clipPath3785">
      <path
         d="M 0,0 H 208 V 203 H 0 Z"
         id="path3783" />
    </clipPath>
    <clipPath
       clipPathUnits="userSpaceOnUse"
       id="clipPath3801">
      <path
         d="M 0,0 H 208 V 203 H 0 Z"
         id="path3799" />
    </clipPath>
    <clipPath
       clipPathUnits="userSpaceOnUse"
       id="clipPath3829">
      <path
         d="M 0,0 H 208 V 203 H 0 Z"
         id="path3827" />
    </clipPath>
    <clipPath
       clipPathUnits="userSpaceOnUse"
       id="clipPath4469">
      <g
         id="g4475">
        <g
           id="g4473">
          <path
             d="M 0,0 H 207 V 202 H 0 Z"
             id="path4471" />
        </g>
      </g>
    </clipPath>
    <clipPath
       clipPathUnits="userSpaceOnUse"
       id="clipPath4488">
      <g
         id="g4494">
        <g
           id="g4492">
          <path
             d="M 0,0 H 207 V 202 H 0 Z"
             id="path4490" />
        </g>
      </g>
    </clipPath>
    <clipPath
       clipPathUnits="userSpaceOnUse"
       id="clipPath4513">
      <g
         id="g4519">
        <g
           id="g4517">
          <path
             d="M 0,0 H 207 V 202 H 0 Z"
             id="path4515" />
        </g>
      </g>
    </clipPath>
    <clipPath
       clipPathUnits="userSpaceOnUse"
       id="clipPath4538">
      <g
         id="g4544">
        <g
           id="g4542">
          <path
             d="M 0,0 H 207 V 202 H 0 Z"
             id="path4540" />
        </g>
      </g>
    </clipPath>
    <clipPath
       clipPathUnits="userSpaceOnUse"
       id="clipPath4557">
      <g
         id="g4563">
        <g
           id="g4561">
          <path
             d="M 0,0 H 207 V 202 H 0 Z"
             id="path4559" />
        </g>
      </g>
    </clipPath>
    <clipPath
       clipPathUnits="userSpaceOnUse"
       id="clipPath4582">
      <g
         id="g4588">
        <g
           id="g4586">
          <path
             d="M 0,0 H 207 V 202 H 0 Z"
             id="path4584" />
        </g>
      </g>
    </clipPath>
    <clipPath
       clipPathUnits="userSpaceOnUse"
       id="clipPath4601">
      <g
         id="g4607">
        <g
           id="g4605">
          <path
             d="M 0,0 H 207 V 202 H 0 Z"
             id="path4603" />
        </g>
      </g>
    </clipPath>
    <clipPath
       clipPathUnits="userSpaceOnUse"
       id="clipPath4622">
      <g
         id="g4628">
        <g
           id="g4626">
          <path
             d="M 0,0 H 207 V 202 H 0 Z"
             id="path4624" />
        </g>
      </g>
    </clipPath>
    <clipPath
       clipPathUnits="userSpaceOnUse"
       id="clipPath4641">
      <g
         id="g4647">
        <g
           id="g4645">
          <path
             d="M 0,0 H 207 V 202 H 0 Z"
             id="path4643" />
        </g>
      </g>
    </clipPath>
    <clipPath
       clipPathUnits="userSpaceOnUse"
       id="clipPath4667">
      <g
         id="g4673">
        <g
           id="g4671">
          <path
             d="M 0,0 H 207 V 202 H 0 Z"
             id="path4669" />
        </g>
      </g>
    </clipPath>
    <clipPath
       clipPathUnits="userSpaceOnUse"
       id="clipPath4686">
      <g
         id="g4692">
        <g
           id="g4690">
          <path
             d="M 0,0 H 207 V 202 H 0 Z"
             id="path4688" />
        </g>
      </g>
    </clipPath>
    <clipPath
       clipPathUnits="userSpaceOnUse"
       id="clipPath4705">
      <g
         id="g4711">
        <g
           id="g4709">
          <path
             d="M 0,0 H 207 V 202 H 0 Z"
             id="path4707" />
        </g>
      </g>
    </clipPath>
    <clipPath
       clipPathUnits="userSpaceOnUse"
       id="clipPath4724">
      <g
         id="g4730">
        <g
           id="g4728">
          <path
             d="M 0,0 H 207 V 202 H 0 Z"
             id="path4726" />
        </g>
      </g>
    </clipPath>
    <clipPath
       clipPathUnits="userSpaceOnUse"
       id="clipPath4743">
      <g
         id="g4749">
        <g
           id="g4747">
          <path
             d="M 0,0 H 207 V 202 H 0 Z"
             id="path4745" />
        </g>
      </g>
    </clipPath>
    <clipPath
       clipPathUnits="userSpaceOnUse"
       id="clipPath4762">
      <g
         id="g4768">
        <g
           id="g4766">
          <path
             d="M 0,0 H 207 V 202 H 0 Z"
             id="path4764" />
        </g>
      </g>
    </clipPath>
    <clipPath
       clipPathUnits="userSpaceOnUse"
       id="clipPath4787">
      <g
         id="g4793">
        <g
           id="g4791">
          <path
             d="M 0,0 H 207 V 202 H 0 Z"
             id="path4789" />
        </g>
      </g>
    </clipPath>
    <clipPath
       clipPathUnits="userSpaceOnUse"
       id="clipPath4816">
      <g
         id="g4822">
        <g
           id="g4820">
          <path
             d="M 0,0 H 207 V 202 H 0 Z"
             id="path4818" />
        </g>
      </g>
    </clipPath>
    <clipPath
       clipPathUnits="userSpaceOnUse"
       id="clipPath4841">
      <g
         id="g4847">
        <g
           id="g4845">
          <path
             d="M 0,0 H 207 V 202 H 0 Z"
             id="path4843" />
        </g>
      </g>
    </clipPath>
    <clipPath
       clipPathUnits="userSpaceOnUse"
       id="clipPath4860">
      <g
         id="g4866">
        <g
           id="g4864">
          <path
             d="M 0,0 H 207 V 202 H 0 Z"
             id="path4862" />
        </g>
      </g>
    </clipPath>
    <clipPath
       clipPathUnits="userSpaceOnUse"
       id="clipPath4888">
      <g
         id="g4894">
        <g
           id="g4892">
          <path
             d="M 0,0 H 207 V 202 H 0 Z"
             id="path4890" />
        </g>
      </g>
    </clipPath>
    <clipPath
       clipPathUnits="userSpaceOnUse"
       id="clipPath4910">
      <g
         id="g4916">
        <g
           id="g4914">
          <path
             d="M 0,0 H 207 V 202 H 0 Z"
             id="path4912" />
        </g>
      </g>
    </clipPath>
    <clipPath
       clipPathUnits="userSpaceOnUse"
       id="clipPath4935">
      <g
         id="g4957">
        <g
           id="g4955"
           clip-path="url(#clipPath3829)">
          <g
             id="g4953">
            <path
               d="m 130.492,19.273 h 1.098 l 1.969,5.289 1.968,-5.289 h 1.098 l -2.363,6.301 h -1.407 z"
               style="fill:#000000;fill-opacity:1;fill-rule:nonzero;stroke:none"
               id="path4937" />
            <path
               d="m 143.441,22.164 v 0.508 h -4.757 c 0.043,0.711 0.257,1.258 0.64,1.633 0.387,0.371 0.922,0.554 1.61,0.554 0.394,0 0.781,-0.047 1.152,-0.144 0.375,-0.098 0.746,-0.246 1.113,-0.442 v 0.981 c -0.371,0.156 -0.75,0.277 -1.14,0.359 -0.391,0.082 -0.786,0.125 -1.188,0.125 -1.004,0 -1.801,-0.293 -2.391,-0.879 -0.585,-0.586 -0.878,-1.375 -0.878,-2.371 0,-1.031 0.277,-1.851 0.832,-2.453 0.558,-0.609 1.312,-0.914 2.257,-0.914 0.848,0 1.516,0.274 2.008,0.824 0.496,0.543 0.742,1.282 0.742,2.219 z m -1.035,-0.301 c -0.008,-0.566 -0.168,-1.019 -0.476,-1.355 -0.309,-0.34 -0.719,-0.508 -1.227,-0.508 -0.578,0 -1.043,0.164 -1.391,0.488 -0.343,0.328 -0.542,0.785 -0.597,1.379 z"
               style="fill:#000000;fill-opacity:1;fill-rule:nonzero;stroke:none"
               id="path4939" />
            <path
               d="m 148.789,20.242 c -0.113,-0.066 -0.242,-0.117 -0.383,-0.144 -0.133,-0.036 -0.285,-0.051 -0.449,-0.051 -0.586,0 -1.035,0.191 -1.348,0.57 -0.312,0.379 -0.468,0.926 -0.468,1.637 v 3.32 h -1.039 v -6.301 h 1.039 v 0.981 c 0.218,-0.383 0.5,-0.668 0.851,-0.852 0.348,-0.187 0.77,-0.281 1.27,-0.281 0.07,0 0.148,0.008 0.234,0.02 0.09,0.007 0.184,0.019 0.289,0.039 z"
               style="fill:#000000;fill-opacity:1;fill-rule:nonzero;stroke:none"
               id="path4941" />
            <path
               d="m 153.891,19.461 v 0.977 c -0.289,-0.149 -0.594,-0.262 -0.911,-0.336 -0.312,-0.075 -0.64,-0.114 -0.976,-0.114 -0.516,0 -0.902,0.078 -1.16,0.239 -0.254,0.156 -0.383,0.39 -0.383,0.707 0,0.242 0.094,0.429 0.277,0.57 0.184,0.133 0.551,0.262 1.106,0.387 l 0.355,0.078 c 0.735,0.156 1.258,0.379 1.563,0.668 0.312,0.285 0.468,0.687 0.468,1.199 0,0.586 -0.234,1.047 -0.699,1.391 -0.461,0.339 -1.097,0.511 -1.906,0.511 -0.336,0 -0.691,-0.035 -1.059,-0.101 -0.363,-0.063 -0.746,-0.16 -1.152,-0.293 v -1.071 c 0.383,0.2 0.762,0.352 1.133,0.454 0.371,0.097 0.738,0.144 1.101,0.144 0.489,0 0.864,-0.082 1.125,-0.246 0.262,-0.168 0.395,-0.406 0.395,-0.711 0,-0.281 -0.098,-0.496 -0.289,-0.644 -0.188,-0.153 -0.602,-0.297 -1.242,-0.434 l -0.36,-0.086 c -0.64,-0.133 -1.105,-0.34 -1.39,-0.617 -0.285,-0.281 -0.426,-0.668 -0.426,-1.153 0,-0.593 0.207,-1.05 0.629,-1.375 0.422,-0.32 1.015,-0.484 1.789,-0.484 0.383,0 0.742,0.031 1.078,0.086 0.34,0.055 0.648,0.141 0.934,0.254 z"
               style="fill:#000000;fill-opacity:1;fill-rule:nonzero;stroke:none"
               id="path4943" />
            <path
               d="m 155.879,19.273 h 1.035 v 6.301 h -1.035 z m 0,-2.453 h 1.035 v 1.313 h -1.035 z"
               style="fill:#000000;fill-opacity:1;fill-rule:nonzero;stroke:none"
               id="path4945" />
            <path
               d="m 161.52,20 c -0.555,0 -0.993,0.219 -1.317,0.652 -0.32,0.43 -0.484,1.024 -0.484,1.778 0,0.754 0.16,1.347 0.48,1.785 0.321,0.43 0.762,0.644 1.321,0.644 0.55,0 0.988,-0.214 1.312,-0.652 0.32,-0.434 0.48,-1.027 0.48,-1.777 0,-0.746 -0.16,-1.336 -0.48,-1.77 C 162.508,20.219 162.07,20 161.52,20 Z m 0,-0.879 c 0.898,0 1.605,0.293 2.121,0.879 0.511,0.586 0.769,1.395 0.769,2.43 0,1.031 -0.258,1.84 -0.769,2.429 -0.516,0.586 -1.223,0.879 -2.121,0.879 -0.903,0 -1.614,-0.293 -2.125,-0.879 -0.512,-0.589 -0.766,-1.398 -0.766,-2.429 0,-1.035 0.254,-1.844 0.766,-2.43 0.511,-0.586 1.222,-0.879 2.125,-0.879 z"
               style="fill:#000000;fill-opacity:1;fill-rule:nonzero;stroke:none"
               id="path4947" />
            <path
               d="m 171.363,21.773 v 3.801 h -1.035 v -3.769 c 0,-0.594 -0.117,-1.043 -0.348,-1.336 -0.234,-0.297 -0.582,-0.446 -1.046,-0.446 -0.559,0 -1,0.176 -1.321,0.536 -0.324,0.355 -0.484,0.839 -0.484,1.457 v 3.558 h -1.043 v -6.301 h 1.043 v 0.981 c 0.246,-0.379 0.539,-0.664 0.871,-0.852 0.336,-0.187 0.727,-0.281 1.164,-0.281 0.723,0 1.27,0.227 1.645,0.676 0.371,0.445 0.554,1.105 0.554,1.976 z"
               style="fill:#000000;fill-opacity:1;fill-rule:nonzero;stroke:none"
               id="path4949" />
            <path
               d="m 175.98,17.176 h 1.223 l 2.328,3.453 2.313,-3.453 h 1.218 l -2.968,4.398 v 4 h -1.141 v -4 z"
               style="fill:#000000;fill-opacity:1;fill-rule:nonzero;stroke:none"
               id="path4951" />
          </g>
        </g>
      </g>
    </clipPath>
    <clipPath
       clipPathUnits="userSpaceOnUse"
       id="clipPath4970">
      <g
         id="g4976">
        <g
           id="g4974">
          <path
             d="M 0,0 H 207 V 202 H 0 Z"
             id="path4972" />
        </g>
      </g>
    </clipPath>
    <clipPath
       clipPathUnits="userSpaceOnUse"
       id="clipPath4999">
      <g
         id="g5005">
        <g
           id="g5003">
          <path
             d="M 0,0 H 207 V 202 H 0 Z"
             id="path5001" />
        </g>
      </g>
    </clipPath>
  </defs>
  <sodipodi:namedview
     id="namedview3281"
     pagecolor="#ffffff"
     bordercolor="#000000"
     borderopacity="0.25"
     inkscape:showpageshadow="2"
     inkscape:pageopacity="0.0"
     inkscape:pagecheckerboard="0"
     inkscape:deskcolor="#d1d1d1"
     showgrid="false">
    <inkscape:page
       x="0"
       y="0"
       id="page3285"
       width="276.63467"
       height="270.08133" />
  </sodipodi:namedview>
  <g
     id="g3287"
     inkscape:groupmode="layer"
     inkscape:label="Page 1"
     transform="matrix(1.3333333,0,0,1.3333333,0,7.4186999e-6)">
    <g
       id="g4922"
       clip-path="url(#clipPath4935)">
      <g
         id="g4312">
        <path
           d="M 0,0 H 207 V 202 H 0 Z"
           id="path4310" />
      </g>
    </g>
    <g
       id="g3289" />
    <g
       id="g3301"
       clip-path="url(#clipPath4705)">
      <g
         id="g3303"
         clip-path="url(#clipPath3307)">
        <g
           id="g3309">
          <g
             id="g3311">
            <path
               d="m 4.32,86.883 h 93.121 c 2.125,0 3.84,1.711 3.84,3.84 v 21.117 c 0,2.129 -1.715,3.84 -3.84,3.84 H 4.32 c -2.129,0 -3.84,-1.711 -3.84,-3.84 V 90.723 c 0,-2.129 1.711,-3.84 3.84,-3.84 z"
               style="fill:none;stroke:#70b453;stroke-width:0.96;stroke-linecap:butt;stroke-linejoin:miter;stroke-miterlimit:1.45;stroke-dasharray:none;stroke-opacity:1"
               id="path3313" />
          </g>
        </g>
      </g>
    </g>
    <g
       id="g3317"
       clip-path="url(#clipPath4999)">
      <g
         id="g3319"
         clip-path="url(#clipPath3323)">
        <g
           id="g3325">
          <path
             d="m 9.609,96.871 h 5.309 v 0.957 h -4.172 v 2.484 h 4 v 0.958 h -4 v 3.042 h 4.274 v 0.958 H 9.609 Z"
             style="fill:#70b453;fill-opacity:1;fill-rule:nonzero;stroke:none"
             id="path3327" />
          <path
             d="m 22.078,101.469 v 3.801 h -1.035 v -3.77 c 0,-0.594 -0.113,-1.043 -0.348,-1.34 -0.23,-0.293 -0.582,-0.441 -1.047,-0.441 -0.558,0 -0.996,0.176 -1.32,0.535 -0.324,0.355 -0.484,0.84 -0.484,1.453 v 3.563 h -1.039 v -6.301 h 1.039 v 0.98 c 0.246,-0.379 0.539,-0.664 0.871,-0.851 0.34,-0.188 0.726,-0.282 1.164,-0.282 0.726,0 1.273,0.227 1.644,0.676 0.372,0.446 0.555,1.106 0.555,1.977 z"
             style="fill:#70b453;fill-opacity:1;fill-rule:nonzero;stroke:none"
             id="path3329" />
          <path
             d="M 23.402,98.969 H 24.5 l 1.969,5.289 1.969,-5.289 h 1.093 l -2.359,6.301 h -1.406 z"
             style="fill:#70b453;fill-opacity:1;fill-rule:nonzero;stroke:none"
             id="path3331" />
          <path
             d="m 30.961,98.969 h 1.035 v 6.301 h -1.035 z m 0,-2.453 h 1.035 v 1.312 h -1.035 z"
             style="fill:#70b453;fill-opacity:1;fill-rule:nonzero;stroke:none"
             id="path3333" />
          <path
             d="M 37.812,99.938 C 37.695,99.871 37.57,99.82 37.43,99.789 c -0.133,-0.031 -0.285,-0.051 -0.45,-0.051 -0.585,0 -1.035,0.192 -1.351,0.574 -0.309,0.379 -0.465,0.926 -0.465,1.637 v 3.321 h -1.043 v -6.301 h 1.043 v 0.98 c 0.219,-0.383 0.5,-0.668 0.848,-0.851 0.351,-0.188 0.773,-0.282 1.273,-0.282 0.07,0 0.149,0.008 0.235,0.02 0.085,0.008 0.183,0.019 0.289,0.039 z"
             style="fill:#70b453;fill-opacity:1;fill-rule:nonzero;stroke:none"
             id="path3335" />
          <path
             d="m 41.086,99.695 c -0.555,0 -0.992,0.219 -1.316,0.653 -0.321,0.429 -0.485,1.023 -0.485,1.777 0,0.754 0.16,1.348 0.481,1.785 0.32,0.43 0.761,0.645 1.32,0.645 0.551,0 0.988,-0.219 1.312,-0.653 0.321,-0.433 0.485,-1.027 0.485,-1.777 0,-0.746 -0.164,-1.336 -0.485,-1.773 -0.324,-0.438 -0.761,-0.657 -1.312,-0.657 z m 0,-0.879 c 0.902,0 1.609,0.293 2.121,0.879 0.516,0.586 0.77,1.395 0.77,2.43 0,1.031 -0.254,1.84 -0.77,2.43 -0.512,0.586 -1.219,0.879 -2.121,0.879 -0.902,0 -1.613,-0.293 -2.125,-0.879 -0.512,-0.59 -0.766,-1.399 -0.766,-2.43 0,-1.035 0.254,-1.844 0.766,-2.43 0.512,-0.586 1.223,-0.879 2.125,-0.879 z"
             style="fill:#70b453;fill-opacity:1;fill-rule:nonzero;stroke:none"
             id="path3337" />
          <path
             d="m 50.93,101.469 v 3.801 h -1.035 v -3.77 c 0,-0.594 -0.118,-1.043 -0.348,-1.34 -0.235,-0.293 -0.582,-0.441 -1.047,-0.441 -0.559,0 -1,0.176 -1.32,0.535 -0.325,0.355 -0.485,0.84 -0.485,1.453 v 3.563 h -1.043 v -6.301 h 1.043 v 0.98 c 0.246,-0.379 0.539,-0.664 0.871,-0.851 0.336,-0.188 0.727,-0.282 1.164,-0.282 0.723,0 1.274,0.227 1.645,0.676 0.371,0.446 0.555,1.106 0.555,1.977 z"
             style="fill:#70b453;fill-opacity:1;fill-rule:nonzero;stroke:none"
             id="path3339" />
          <path
             d="m 57.898,100.18 c 0.262,-0.465 0.571,-0.809 0.93,-1.032 0.36,-0.218 0.785,-0.332 1.27,-0.332 0.656,0 1.164,0.231 1.519,0.692 0.356,0.461 0.535,1.113 0.535,1.961 v 3.801 h -1.039 v -3.77 c 0,-0.602 -0.109,-1.051 -0.32,-1.344 -0.215,-0.293 -0.543,-0.437 -0.981,-0.437 -0.535,0 -0.96,0.176 -1.269,0.535 -0.313,0.355 -0.469,0.84 -0.469,1.453 v 3.563 h -1.039 v -3.77 c 0,-0.605 -0.109,-1.055 -0.32,-1.344 -0.215,-0.293 -0.547,-0.437 -0.992,-0.437 -0.528,0 -0.95,0.179 -1.258,0.539 -0.313,0.355 -0.469,0.84 -0.469,1.449 v 3.563 h -1.039 v -6.301 h 1.039 v 0.98 c 0.234,-0.387 0.52,-0.672 0.848,-0.855 0.332,-0.184 0.722,-0.278 1.176,-0.278 0.46,0 0.847,0.118 1.164,0.352 0.324,0.23 0.562,0.57 0.714,1.012 z"
             style="fill:#70b453;fill-opacity:1;fill-rule:nonzero;stroke:none"
             id="path3341" />
          <path
             d="m 69.605,101.859 v 0.508 h -4.757 c 0.043,0.711 0.257,1.258 0.64,1.633 0.387,0.371 0.922,0.555 1.61,0.555 0.398,0 0.781,-0.047 1.152,-0.145 0.375,-0.098 0.746,-0.246 1.113,-0.441 v 0.98 c -0.371,0.156 -0.75,0.278 -1.14,0.36 -0.391,0.082 -0.785,0.125 -1.188,0.125 -1.004,0 -1.801,-0.293 -2.39,-0.879 -0.586,-0.586 -0.879,-1.375 -0.879,-2.375 0,-1.032 0.277,-1.848 0.832,-2.45 0.558,-0.609 1.312,-0.914 2.257,-0.914 0.848,0 1.516,0.274 2.008,0.825 0.496,0.543 0.742,1.281 0.742,2.218 z m -1.035,-0.3 c -0.008,-0.567 -0.168,-1.02 -0.476,-1.356 -0.309,-0.34 -0.719,-0.508 -1.227,-0.508 -0.578,0 -1.043,0.164 -1.39,0.489 -0.344,0.328 -0.543,0.785 -0.598,1.378 z"
             style="fill:#70b453;fill-opacity:1;fill-rule:nonzero;stroke:none"
             id="path3343" />
          <path
             d="m 76.543,101.469 v 3.801 h -1.035 v -3.77 c 0,-0.594 -0.117,-1.043 -0.352,-1.34 -0.23,-0.293 -0.582,-0.441 -1.047,-0.441 -0.558,0 -0.996,0.176 -1.32,0.535 -0.324,0.355 -0.484,0.84 -0.484,1.453 v 3.563 h -1.039 v -6.301 h 1.039 v 0.98 c 0.25,-0.379 0.539,-0.664 0.871,-0.851 0.34,-0.188 0.726,-0.282 1.164,-0.282 0.726,0 1.273,0.227 1.644,0.676 0.371,0.446 0.559,1.106 0.559,1.977 z"
             style="fill:#70b453;fill-opacity:1;fill-rule:nonzero;stroke:none"
             id="path3345" />
          <path
             d="m 79.629,97.18 v 1.789 h 2.133 v 0.804 h -2.133 v 3.422 c 0,0.512 0.07,0.844 0.207,0.989 0.144,0.148 0.43,0.218 0.863,0.218 h 1.063 v 0.868 h -1.063 c -0.801,0 -1.351,-0.149 -1.656,-0.446 -0.301,-0.301 -0.453,-0.844 -0.453,-1.629 V 99.773 H 77.828 V 98.969 H 78.59 V 97.18 Z"
             style="fill:#70b453;fill-opacity:1;fill-rule:nonzero;stroke:none"
             id="path3347" />
          <path
             d="m 87.129,104.312 h 1.855 v -6.406 l -2.019,0.406 v -1.035 l 2.008,-0.406 h 1.136 v 7.441 h 1.856 v 0.958 h -4.836 z"
             style="fill:#70b453;fill-opacity:1;fill-rule:nonzero;stroke:none"
             id="path3349" />
        </g>
      </g>
    </g>
    <g
       id="g3353"
       clip-path="url(#clipPath4724)">
      <g
         id="g3355"
         clip-path="url(#clipPath3359)">
        <g
           id="g3361">
          <g
             id="g3363">
            <path
               d="m 4.609,115.68 h 198.547 c 2.125,0 3.84,1.715 3.84,3.84 v 21.121 c 0,2.129 -1.715,3.839 -3.84,3.839 H 4.609 c -2.129,0 -3.839,-1.71 -3.839,-3.839 V 119.52 c 0,-2.125 1.71,-3.84 3.839,-3.84 z"
               style="fill:#70b453;fill-opacity:1;fill-rule:nonzero;stroke:#70b453;stroke-width:0.96;stroke-linecap:butt;stroke-linejoin:miter;stroke-miterlimit:1.45;stroke-dasharray:none;stroke-opacity:1"
               id="path3365" />
          </g>
        </g>
      </g>
    </g>
    <g
       id="g3369"
       clip-path="url(#clipPath4841)">
      <g
         id="g3371"
         clip-path="url(#clipPath3375)">
        <g
           id="g3377">
          <path
             d="m 80.484,126.316 v 1.2 c -0.382,-0.356 -0.793,-0.621 -1.226,-0.797 -0.43,-0.176 -0.891,-0.266 -1.379,-0.266 -0.961,0 -1.695,0.293 -2.203,0.883 -0.512,0.586 -0.766,1.434 -0.766,2.543 0,1.105 0.254,1.953 0.766,2.543 0.508,0.586 1.242,0.879 2.203,0.879 0.488,0 0.949,-0.09 1.379,-0.266 0.433,-0.176 0.844,-0.441 1.226,-0.801 v 1.188 c -0.398,0.269 -0.82,0.473 -1.265,0.609 -0.442,0.133 -0.91,0.203 -1.407,0.203 -1.269,0 -2.273,-0.39 -3.003,-1.168 -0.731,-0.777 -1.098,-1.839 -1.098,-3.187 0,-1.352 0.367,-2.414 1.098,-3.188 0.73,-0.781 1.734,-1.171 3.003,-1.171 0.504,0 0.977,0.066 1.418,0.203 0.446,0.129 0.864,0.328 1.254,0.593 z"
             style="fill:#000000;fill-opacity:1;fill-rule:nonzero;stroke:none"
             id="path3379" />
          <path
             d="m 84.637,128.496 c -0.555,0 -0.996,0.215 -1.317,0.652 -0.324,0.43 -0.484,1.024 -0.484,1.778 0,0.754 0.16,1.347 0.476,1.781 0.325,0.434 0.766,0.648 1.325,0.648 0.551,0 0.988,-0.218 1.308,-0.652 0.325,-0.433 0.485,-1.027 0.485,-1.777 0,-0.746 -0.16,-1.336 -0.485,-1.774 -0.32,-0.437 -0.757,-0.656 -1.308,-0.656 z m 0,-0.879 c 0.898,0 1.605,0.293 2.121,0.879 0.512,0.586 0.769,1.395 0.769,2.43 0,1.031 -0.257,1.84 -0.769,2.429 -0.516,0.586 -1.223,0.879 -2.121,0.879 -0.907,0 -1.614,-0.293 -2.129,-0.879 -0.508,-0.589 -0.762,-1.398 -0.762,-2.429 0,-1.035 0.254,-1.844 0.762,-2.43 0.515,-0.586 1.222,-0.879 2.129,-0.879 z"
             style="fill:#000000;fill-opacity:1;fill-rule:nonzero;stroke:none"
             id="path3381" />
          <path
             d="m 94.48,130.266 v 3.804 h -1.035 v -3.769 c 0,-0.598 -0.117,-1.043 -0.351,-1.34 -0.231,-0.297 -0.578,-0.441 -1.043,-0.441 -0.559,0 -1,0.175 -1.324,0.531 -0.321,0.359 -0.485,0.844 -0.485,1.457 v 3.562 h -1.039 v -6.3 h 1.039 v 0.98 c 0.25,-0.379 0.539,-0.664 0.875,-0.852 0.336,-0.187 0.723,-0.281 1.164,-0.281 0.723,0 1.27,0.227 1.641,0.676 0.371,0.445 0.558,1.105 0.558,1.973 z"
             style="fill:#000000;fill-opacity:1;fill-rule:nonzero;stroke:none"
             id="path3383" />
          <path
             d="m 100.688,128.727 v -3.411 h 1.035 v 8.754 h -1.035 v -0.945 c -0.215,0.375 -0.493,0.652 -0.825,0.836 -0.332,0.184 -0.726,0.273 -1.195,0.273 -0.758,0 -1.379,-0.304 -1.859,-0.914 -0.477,-0.605 -0.715,-1.406 -0.715,-2.394 0,-0.992 0.238,-1.789 0.715,-2.399 0.48,-0.605 1.101,-0.91 1.859,-0.91 0.469,0 0.863,0.094 1.195,0.278 0.332,0.179 0.61,0.457 0.825,0.832 z m -3.524,2.199 c 0,0.762 0.152,1.359 0.465,1.793 0.316,0.433 0.746,0.648 1.293,0.648 0.547,0 0.98,-0.215 1.293,-0.648 0.316,-0.434 0.473,-1.031 0.473,-1.793 0,-0.762 -0.157,-1.36 -0.473,-1.789 -0.313,-0.434 -0.746,-0.653 -1.293,-0.653 -0.547,0 -0.977,0.219 -1.293,0.653 -0.313,0.429 -0.465,1.027 -0.465,1.789 z"
             style="fill:#000000;fill-opacity:1;fill-rule:nonzero;stroke:none"
             id="path3385" />
          <path
             d="m 106.719,130.902 c -0.836,0 -1.414,0.098 -1.739,0.289 -0.32,0.188 -0.484,0.516 -0.484,0.977 0,0.367 0.121,0.66 0.359,0.879 0.247,0.211 0.575,0.32 0.993,0.32 0.574,0 1.031,-0.203 1.379,-0.609 0.347,-0.406 0.523,-0.949 0.523,-1.625 v -0.231 z m 2.066,-0.425 v 3.593 h -1.035 v -0.957 c -0.238,0.383 -0.531,0.664 -0.883,0.848 -0.355,0.184 -0.785,0.273 -1.297,0.273 -0.644,0 -1.156,-0.183 -1.539,-0.543 -0.379,-0.363 -0.57,-0.847 -0.57,-1.457 0,-0.707 0.238,-1.242 0.711,-1.601 0.476,-0.36 1.183,-0.539 2.125,-0.539 h 1.453 v -0.102 c 0,-0.476 -0.16,-0.844 -0.473,-1.101 -0.312,-0.266 -0.75,-0.395 -1.316,-0.395 -0.359,0 -0.711,0.043 -1.055,0.129 -0.34,0.086 -0.668,0.215 -0.984,0.387 v -0.957 c 0.379,-0.145 0.746,-0.254 1.105,-0.325 0.356,-0.074 0.703,-0.113 1.039,-0.113 0.911,0 1.594,0.238 2.043,0.711 0.45,0.473 0.676,1.188 0.676,2.149 z"
             style="fill:#000000;fill-opacity:1;fill-rule:nonzero;stroke:none"
             id="path3387" />
          <path
             d="m 119.965,130.66 v 0.508 h -4.758 c 0.047,0.711 0.258,1.254 0.641,1.629 0.386,0.371 0.922,0.558 1.609,0.558 0.398,0 0.781,-0.05 1.152,-0.148 0.375,-0.094 0.746,-0.242 1.114,-0.437 v 0.98 c -0.371,0.156 -0.75,0.277 -1.141,0.359 -0.391,0.082 -0.785,0.125 -1.187,0.125 -1.004,0 -1.801,-0.293 -2.391,-0.879 -0.586,-0.585 -0.875,-1.375 -0.875,-2.375 0,-1.031 0.277,-1.847 0.832,-2.453 0.559,-0.605 1.309,-0.91 2.254,-0.91 0.847,0 1.515,0.274 2.008,0.821 0.496,0.546 0.742,1.285 0.742,2.222 z m -1.035,-0.305 c -0.008,-0.566 -0.164,-1.015 -0.477,-1.355 -0.308,-0.336 -0.715,-0.504 -1.226,-0.504 -0.579,0 -1.039,0.164 -1.391,0.488 -0.344,0.328 -0.543,0.786 -0.594,1.379 z"
             style="fill:#000000;fill-opacity:1;fill-rule:nonzero;stroke:none"
             id="path3389" />
          <path
             d="m 126.902,130.266 v 3.804 h -1.035 v -3.769 c 0,-0.598 -0.117,-1.043 -0.347,-1.34 -0.235,-0.297 -0.582,-0.441 -1.047,-0.441 -0.559,0 -1,0.175 -1.325,0.531 -0.32,0.359 -0.48,0.844 -0.48,1.457 v 3.562 h -1.043 v -6.3 h 1.043 v 0.98 c 0.246,-0.379 0.535,-0.664 0.871,-0.852 0.336,-0.187 0.723,-0.281 1.164,-0.281 0.723,0 1.27,0.227 1.641,0.676 0.371,0.445 0.558,1.105 0.558,1.973 z"
             style="fill:#000000;fill-opacity:1;fill-rule:nonzero;stroke:none"
             id="path3391" />
          <path
             d="m 128.223,127.77 h 1.097 l 1.969,5.289 1.969,-5.289 h 1.097 l -2.363,6.3 h -1.406 z"
             style="fill:#000000;fill-opacity:1;fill-rule:nonzero;stroke:none"
             id="path3393" />
        </g>
      </g>
    </g>
    <g
       id="g3397"
       clip-path="url(#clipPath4686)">
      <g
         id="g3399"
         clip-path="url(#clipPath3403)">
        <g
           id="g3405">
          <g
             id="g3407">
            <path
               d="m 4.609,144.48 h 198.547 c 2.125,0 3.84,1.715 3.84,3.84 v 21.121 c 0,2.129 -1.715,3.84 -3.84,3.84 H 4.609 c -2.129,0 -3.839,-1.711 -3.839,-3.84 V 148.32 c 0,-2.125 1.71,-3.84 3.839,-3.84 z"
               style="fill:#afafaf;fill-opacity:1;fill-rule:nonzero;stroke:#000000;stroke-width:0.96;stroke-linecap:butt;stroke-linejoin:miter;stroke-miterlimit:1.45;stroke-dasharray:none;stroke-opacity:1"
               id="path3409" />
          </g>
        </g>
      </g>
    </g>
    <g
       id="g3413"
       clip-path="url(#clipPath4538)">
      <g
         id="g3415"
         clip-path="url(#clipPath3419)">
        <g
           id="g3421">
          <path
             d="m 77.574,155.242 c -0.824,0 -1.48,0.309 -1.969,0.922 -0.48,0.617 -0.722,1.453 -0.722,2.516 0,1.058 0.242,1.894 0.722,2.508 0.489,0.613 1.145,0.921 1.969,0.921 0.828,0 1.481,-0.308 1.961,-0.921 0.481,-0.614 0.723,-1.45 0.723,-2.508 0,-1.063 -0.242,-1.899 -0.723,-2.516 -0.48,-0.613 -1.133,-0.922 -1.961,-0.922 z m 0,-0.922 c 1.18,0 2.121,0.395 2.824,1.188 0.707,0.785 1.059,1.844 1.059,3.172 0,1.324 -0.352,2.379 -1.059,3.172 -0.703,0.789 -1.644,1.179 -2.824,1.179 -1.179,0 -2.125,-0.39 -2.832,-1.179 -0.707,-0.79 -1.058,-1.844 -1.058,-3.172 0,-1.328 0.351,-2.387 1.058,-3.172 0.707,-0.793 1.653,-1.188 2.832,-1.188 z"
             style="fill:#ffffff;fill-opacity:1;fill-rule:nonzero;stroke:none"
             id="path3423" />
          <path
             d="m 88.27,154.746 v 1.109 c -0.43,-0.207 -0.84,-0.359 -1.223,-0.46 -0.379,-0.102 -0.75,-0.153 -1.106,-0.153 -0.621,0 -1.097,0.121 -1.433,0.36 -0.336,0.242 -0.504,0.582 -0.504,1.023 0,0.371 0.113,0.652 0.332,0.844 0.226,0.187 0.648,0.34 1.273,0.457 l 0.684,0.14 c 0.848,0.161 1.473,0.446 1.875,0.856 0.406,0.402 0.609,0.949 0.609,1.629 0,0.816 -0.277,1.433 -0.824,1.851 -0.543,0.422 -1.34,0.629 -2.394,0.629 -0.399,0 -0.821,-0.043 -1.274,-0.133 -0.445,-0.089 -0.906,-0.222 -1.387,-0.398 v -1.172 c 0.461,0.258 0.911,0.453 1.356,0.586 0.441,0.129 0.875,0.195 1.305,0.195 0.648,0 1.148,-0.125 1.5,-0.382 0.355,-0.254 0.531,-0.618 0.531,-1.09 0,-0.414 -0.129,-0.735 -0.383,-0.969 -0.254,-0.23 -0.668,-0.406 -1.242,-0.523 l -0.695,-0.133 c -0.848,-0.168 -1.461,-0.434 -1.836,-0.793 -0.379,-0.36 -0.571,-0.864 -0.571,-1.504 0,-0.742 0.262,-1.328 0.782,-1.754 0.527,-0.426 1.246,-0.641 2.167,-0.641 0.391,0 0.793,0.035 1.204,0.106 0.406,0.07 0.824,0.179 1.254,0.32 z"
             style="fill:#ffffff;fill-opacity:1;fill-rule:nonzero;stroke:none"
             id="path3425" />
          <path
             d="m 98.18,156.754 v 0.98 c -0.293,-0.152 -0.594,-0.261 -0.91,-0.339 -0.317,-0.075 -0.641,-0.11 -0.981,-0.11 -0.512,0 -0.898,0.078 -1.156,0.235 -0.258,0.156 -0.383,0.394 -0.383,0.71 0,0.239 0.09,0.43 0.273,0.567 0.184,0.137 0.555,0.265 1.11,0.387 l 0.355,0.082 c 0.735,0.156 1.254,0.379 1.563,0.668 0.312,0.285 0.469,0.683 0.469,1.199 0,0.582 -0.235,1.047 -0.7,1.387 -0.461,0.343 -1.097,0.511 -1.906,0.511 -0.34,0 -0.691,-0.031 -1.059,-0.101 -0.363,-0.063 -0.746,-0.16 -1.152,-0.289 v -1.071 c 0.383,0.2 0.758,0.348 1.129,0.45 0.371,0.097 0.742,0.148 1.106,0.148 0.484,0 0.859,-0.086 1.124,-0.25 0.262,-0.168 0.391,-0.402 0.391,-0.707 0,-0.281 -0.094,-0.496 -0.285,-0.649 -0.188,-0.148 -0.602,-0.292 -1.242,-0.433 l -0.36,-0.082 c -0.644,-0.137 -1.105,-0.344 -1.39,-0.621 -0.285,-0.281 -0.43,-0.664 -0.43,-1.153 0,-0.593 0.211,-1.05 0.633,-1.371 0.418,-0.324 1.016,-0.484 1.789,-0.484 0.383,0 0.742,0.027 1.078,0.086 0.34,0.055 0.649,0.141 0.934,0.25 z"
             style="fill:#ffffff;fill-opacity:1;fill-rule:nonzero;stroke:none"
             id="path3427" />
          <path
             d="m 102.789,163.453 c -0.293,0.75 -0.578,1.242 -0.855,1.469 -0.278,0.23 -0.649,0.344 -1.114,0.344 h -0.828 v -0.868 h 0.606 c 0.285,0 0.507,-0.066 0.664,-0.203 0.16,-0.133 0.332,-0.453 0.523,-0.953 l 0.188,-0.472 -2.551,-6.2 h 1.098 l 1.968,4.926 1.969,-4.926 h 1.098 z"
             style="fill:#ffffff;fill-opacity:1;fill-rule:nonzero;stroke:none"
             id="path3429" />
          <path
             d="m 111,156.754 v 0.98 c -0.293,-0.152 -0.598,-0.261 -0.91,-0.339 -0.317,-0.075 -0.641,-0.11 -0.981,-0.11 -0.511,0 -0.898,0.078 -1.16,0.235 -0.254,0.156 -0.379,0.394 -0.379,0.71 0,0.239 0.09,0.43 0.274,0.567 0.183,0.137 0.554,0.265 1.109,0.387 l 0.356,0.082 c 0.734,0.156 1.253,0.379 1.562,0.668 0.313,0.285 0.465,0.683 0.465,1.199 0,0.582 -0.231,1.047 -0.695,1.387 -0.461,0.343 -1.098,0.511 -1.907,0.511 -0.339,0 -0.691,-0.031 -1.058,-0.101 -0.364,-0.063 -0.75,-0.16 -1.153,-0.289 v -1.071 c 0.383,0.2 0.758,0.348 1.129,0.45 0.371,0.097 0.739,0.148 1.102,0.148 0.488,0 0.863,-0.086 1.125,-0.25 0.266,-0.168 0.394,-0.402 0.394,-0.707 0,-0.281 -0.093,-0.496 -0.285,-0.649 -0.187,-0.148 -0.601,-0.292 -1.242,-0.433 l -0.363,-0.082 c -0.641,-0.137 -1.102,-0.344 -1.387,-0.621 -0.285,-0.281 -0.43,-0.664 -0.43,-1.153 0,-0.593 0.211,-1.05 0.633,-1.371 0.418,-0.324 1.016,-0.484 1.785,-0.484 0.383,0 0.746,0.027 1.082,0.086 0.336,0.055 0.649,0.141 0.934,0.25 z"
             style="fill:#ffffff;fill-opacity:1;fill-rule:nonzero;stroke:none"
             id="path3431" />
          <path
             d="m 114.008,154.781 v 1.789 h 2.133 v 0.805 h -2.133 v 3.418 c 0,0.516 0.07,0.844 0.211,0.992 0.14,0.145 0.429,0.219 0.859,0.219 h 1.063 v 0.867 h -1.063 c -0.801,0 -1.351,-0.148 -1.652,-0.445 -0.305,-0.301 -0.457,-0.844 -0.457,-1.633 v -3.418 h -0.758 v -0.805 h 0.758 v -1.789 z"
             style="fill:#ffffff;fill-opacity:1;fill-rule:nonzero;stroke:none"
             id="path3433" />
          <path
             d="m 122.891,159.461 v 0.508 h -4.758 c 0.043,0.711 0.258,1.254 0.64,1.629 0.387,0.371 0.922,0.558 1.61,0.558 0.398,0 0.781,-0.051 1.152,-0.148 0.375,-0.098 0.746,-0.242 1.113,-0.438 v 0.981 c -0.371,0.156 -0.75,0.277 -1.14,0.359 -0.391,0.082 -0.785,0.121 -1.188,0.121 -1.004,0 -1.8,-0.293 -2.39,-0.875 -0.586,-0.586 -0.879,-1.379 -0.879,-2.375 0,-1.031 0.277,-1.847 0.836,-2.453 0.558,-0.605 1.308,-0.91 2.254,-0.91 0.847,0 1.515,0.273 2.007,0.82 0.497,0.543 0.743,1.285 0.743,2.223 z m -1.036,-0.305 c -0.007,-0.566 -0.167,-1.015 -0.476,-1.355 -0.309,-0.336 -0.719,-0.504 -1.227,-0.504 -0.578,0 -1.043,0.16 -1.39,0.488 -0.344,0.324 -0.543,0.785 -0.594,1.379 z"
             style="fill:#ffffff;fill-opacity:1;fill-rule:nonzero;stroke:none"
             id="path3435" />
          <path
             d="m 129.496,157.777 c 0.258,-0.465 0.566,-0.804 0.926,-1.027 0.359,-0.223 0.785,-0.332 1.273,-0.332 0.657,0 1.16,0.23 1.52,0.691 0.355,0.457 0.531,1.11 0.531,1.957 v 3.805 h -1.039 v -3.769 c 0,-0.606 -0.105,-1.051 -0.32,-1.344 -0.215,-0.293 -0.539,-0.442 -0.981,-0.442 -0.535,0 -0.957,0.18 -1.269,0.536 -0.313,0.355 -0.469,0.843 -0.469,1.457 v 3.562 h -1.039 v -3.769 c 0,-0.61 -0.106,-1.055 -0.32,-1.344 -0.215,-0.293 -0.543,-0.442 -0.993,-0.442 -0.527,0 -0.945,0.18 -1.257,0.543 -0.313,0.356 -0.469,0.84 -0.469,1.45 v 3.562 h -1.039 v -6.301 h 1.039 v 0.977 c 0.238,-0.387 0.519,-0.668 0.851,-0.856 0.329,-0.183 0.723,-0.273 1.176,-0.273 0.457,0 0.844,0.117 1.164,0.348 0.321,0.234 0.559,0.57 0.715,1.011 z"
             style="fill:#ffffff;fill-opacity:1;fill-rule:nonzero;stroke:none"
             id="path3437" />
        </g>
      </g>
    </g>
    <g
       id="g3441"
       clip-path="url(#clipPath4557)">
      <g
         id="g3443"
         clip-path="url(#clipPath3447)">
        <g
           id="g3449">
          <g
             id="g3451">
            <path
               d="m 4.609,173.281 h 198.547 c 2.125,0 3.84,1.711 3.84,3.84 v 21.121 c 0,2.125 -1.715,3.84 -3.84,3.84 H 4.609 c -2.129,0 -3.839,-1.715 -3.839,-3.84 v -21.121 c 0,-2.129 1.71,-3.84 3.839,-3.84 z"
               style="fill:#373737;fill-opacity:1;fill-rule:nonzero;stroke:#000000;stroke-width:0.96;stroke-linecap:butt;stroke-linejoin:miter;stroke-miterlimit:1.45;stroke-dasharray:none;stroke-opacity:1"
               id="path3453" />
          </g>
        </g>
      </g>
    </g>
    <g
       id="g3457"
       clip-path="url(#clipPath4513)">
      <g
         id="g3459"
         clip-path="url(#clipPath3463)">
        <g
           id="g3465">
          <path
             d="m 82.668,183.918 v 1.199 c -0.383,-0.355 -0.793,-0.625 -1.227,-0.801 -0.433,-0.175 -0.89,-0.261 -1.379,-0.261 -0.96,0 -1.695,0.293 -2.207,0.883 -0.507,0.582 -0.761,1.429 -0.761,2.542 0,1.106 0.254,1.954 0.761,2.54 0.512,0.585 1.247,0.878 2.207,0.878 0.489,0 0.946,-0.086 1.379,-0.265 0.434,-0.176 0.844,-0.442 1.227,-0.797 v 1.187 c -0.398,0.27 -0.82,0.473 -1.266,0.606 -0.445,0.137 -0.914,0.203 -1.406,0.203 -1.273,0 -2.273,-0.387 -3.004,-1.164 -0.73,-0.781 -1.097,-1.844 -1.097,-3.188 0,-1.351 0.367,-2.414 1.097,-3.191 0.731,-0.781 1.731,-1.168 3.004,-1.168 0.5,0 0.973,0.067 1.418,0.199 0.445,0.133 0.863,0.332 1.254,0.598 z"
             style="fill:#ffffff;fill-opacity:1;fill-rule:nonzero;stroke:none"
             id="path3467" />
          <path
             d="m 86.816,186.094 c -0.554,0 -0.992,0.218 -1.316,0.652 -0.32,0.434 -0.48,1.024 -0.48,1.777 0,0.754 0.156,1.352 0.476,1.786 0.324,0.429 0.762,0.648 1.32,0.648 0.555,0 0.989,-0.219 1.313,-0.656 0.32,-0.434 0.484,-1.028 0.484,-1.778 0,-0.746 -0.164,-1.335 -0.484,-1.769 -0.324,-0.438 -0.758,-0.66 -1.313,-0.66 z m 0,-0.875 c 0.903,0 1.61,0.293 2.122,0.875 0.515,0.586 0.773,1.394 0.773,2.429 0,1.032 -0.258,1.844 -0.773,2.434 -0.512,0.582 -1.219,0.875 -2.122,0.875 -0.902,0 -1.609,-0.293 -2.125,-0.875 -0.507,-0.59 -0.765,-1.402 -0.765,-2.434 0,-1.035 0.258,-1.843 0.765,-2.429 0.516,-0.582 1.223,-0.875 2.125,-0.875 z"
             style="fill:#ffffff;fill-opacity:1;fill-rule:nonzero;stroke:none"
             id="path3469" />
          <path
             d="m 96.328,186.578 c 0.262,-0.465 0.57,-0.808 0.93,-1.027 0.359,-0.223 0.785,-0.332 1.269,-0.332 0.657,0 1.164,0.23 1.52,0.691 0.355,0.457 0.535,1.11 0.535,1.957 v 3.801 h -1.039 v -3.766 c 0,-0.605 -0.109,-1.054 -0.32,-1.347 -0.215,-0.289 -0.543,-0.438 -0.981,-0.438 -0.535,0 -0.961,0.18 -1.269,0.535 -0.313,0.356 -0.469,0.84 -0.469,1.457 v 3.559 h -1.039 v -3.766 c 0,-0.609 -0.11,-1.058 -0.32,-1.347 -0.215,-0.289 -0.547,-0.438 -0.993,-0.438 -0.527,0 -0.949,0.18 -1.257,0.539 -0.313,0.36 -0.469,0.84 -0.469,1.453 v 3.559 h -1.039 v -6.297 h 1.039 v 0.977 c 0.238,-0.387 0.519,-0.672 0.851,-0.856 0.328,-0.183 0.719,-0.273 1.172,-0.273 0.461,0 0.848,0.113 1.168,0.347 0.321,0.235 0.559,0.571 0.711,1.012 z"
             style="fill:#ffffff;fill-opacity:1;fill-rule:nonzero;stroke:none"
             id="path3471" />
          <path
             d="m 103.648,190.723 v 3.343 h -1.043 v -8.695 h 1.043 v 0.953 c 0.219,-0.375 0.493,-0.652 0.821,-0.832 0.336,-0.183 0.73,-0.273 1.191,-0.273 0.766,0 1.387,0.301 1.863,0.91 0.481,0.609 0.719,1.406 0.719,2.394 0,0.993 -0.238,1.789 -0.719,2.399 -0.476,0.605 -1.097,0.91 -1.863,0.91 -0.461,0 -0.855,-0.09 -1.191,-0.27 -0.328,-0.183 -0.602,-0.464 -0.821,-0.839 z m 3.52,-2.2 c 0,-0.757 -0.156,-1.355 -0.473,-1.785 -0.308,-0.437 -0.738,-0.656 -1.285,-0.656 -0.551,0 -0.98,0.219 -1.297,0.656 -0.308,0.43 -0.465,1.028 -0.465,1.785 0,0.762 0.157,1.36 0.465,1.797 0.317,0.43 0.746,0.645 1.297,0.645 0.547,0 0.977,-0.215 1.285,-0.645 0.317,-0.437 0.473,-1.035 0.473,-1.797 z"
             style="fill:#ffffff;fill-opacity:1;fill-rule:nonzero;stroke:none"
             id="path3473" />
          <path
             d="m 109.852,189.184 v -3.813 h 1.035 v 3.774 c 0,0.593 0.117,1.043 0.347,1.343 0.235,0.297 0.582,0.446 1.047,0.446 0.559,0 1,-0.18 1.324,-0.536 0.325,-0.355 0.489,-0.843 0.489,-1.457 v -3.57 h 1.035 v 6.297 h -1.035 v -0.965 c -0.25,0.383 -0.543,0.668 -0.879,0.856 -0.328,0.183 -0.715,0.273 -1.153,0.273 -0.722,0 -1.273,-0.223 -1.648,-0.676 -0.375,-0.449 -0.562,-1.105 -0.562,-1.972 z"
             style="fill:#ffffff;fill-opacity:1;fill-rule:nonzero;stroke:none"
             id="path3475" />
          <path
             d="m 118.285,183.582 v 1.789 h 2.133 v 0.805 h -2.133 v 3.418 c 0,0.515 0.07,0.844 0.207,0.988 0.145,0.148 0.43,0.223 0.86,0.223 h 1.066 v 0.863 h -1.066 c -0.797,0 -1.348,-0.148 -1.653,-0.441 -0.304,-0.301 -0.457,-0.844 -0.457,-1.633 v -3.418 h -0.758 v -0.805 h 0.758 v -1.789 z"
             style="fill:#ffffff;fill-opacity:1;fill-rule:nonzero;stroke:none"
             id="path3477" />
          <path
             d="m 127.168,188.262 v 0.504 h -4.762 c 0.047,0.714 0.262,1.257 0.641,1.632 0.387,0.372 0.926,0.559 1.609,0.559 0.399,0 0.782,-0.051 1.153,-0.148 0.375,-0.098 0.75,-0.243 1.117,-0.438 v 0.977 c -0.371,0.16 -0.754,0.277 -1.145,0.359 -0.39,0.086 -0.785,0.125 -1.187,0.125 -1.004,0 -1.801,-0.293 -2.391,-0.875 -0.582,-0.586 -0.875,-1.379 -0.875,-2.375 0,-1.031 0.277,-1.848 0.832,-2.453 0.559,-0.609 1.309,-0.91 2.254,-0.91 0.848,0 1.52,0.273 2.008,0.82 0.496,0.543 0.746,1.285 0.746,2.223 z m -1.035,-0.305 c -0.008,-0.566 -0.168,-1.019 -0.481,-1.355 -0.308,-0.336 -0.714,-0.508 -1.226,-0.508 -0.578,0 -1.039,0.164 -1.387,0.492 -0.348,0.324 -0.547,0.785 -0.598,1.375 z"
             style="fill:#ffffff;fill-opacity:1;fill-rule:nonzero;stroke:none"
             id="path3479" />
          <path
             d="m 132.516,186.336 c -0.118,-0.066 -0.243,-0.113 -0.383,-0.145 -0.137,-0.035 -0.285,-0.05 -0.449,-0.05 -0.586,0 -1.036,0.191 -1.352,0.574 -0.309,0.379 -0.465,0.922 -0.465,1.637 v 3.316 h -1.043 v -6.297 h 1.043 v 0.977 c 0.215,-0.383 0.5,-0.664 0.848,-0.848 0.347,-0.188 0.773,-0.281 1.273,-0.281 0.071,0 0.149,0.004 0.235,0.015 0.086,0.008 0.183,0.02 0.289,0.039 z"
             style="fill:#ffffff;fill-opacity:1;fill-rule:nonzero;stroke:none"
             id="path3481" />
        </g>
      </g>
    </g>
    <g
       id="g3485"
       clip-path="url(#clipPath4743)">
      <g
         id="g3487"
         clip-path="url(#clipPath3491)">
        <g
           id="g3493">
          <g
             id="g3495">
            <path
               d="m 4.32,0.48 h 93.121 c 2.125,0 3.84,1.715 3.84,3.84 v 21.121 c 0,2.129 -1.715,3.84 -3.84,3.84 H 4.32 c -2.129,0 -3.84,-1.711 -3.84,-3.84 V 4.32 c 0,-2.125 1.711,-3.84 3.84,-3.84 z"
               style="fill:#79a7ce;fill-opacity:1;fill-rule:nonzero;stroke:#000000;stroke-width:0.96;stroke-linecap:butt;stroke-linejoin:miter;stroke-miterlimit:1.45;stroke-dasharray:none;stroke-opacity:1"
               id="path3497" />
          </g>
        </g>
      </g>
    </g>
    <g
       id="g3501"
       clip-path="url(#clipPath4469)">
      <g
         id="g3503"
         clip-path="url(#clipPath3507)">
        <g
           id="g3509">
          <path
             d="m 24.078,4.699 v 3.156 h 1.43 c 0.527,0 0.937,-0.136 1.226,-0.41 0.289,-0.273 0.434,-0.664 0.434,-1.172 0,-0.5 -0.145,-0.89 -0.434,-1.164 -0.289,-0.273 -0.699,-0.41 -1.226,-0.41 z M 22.941,3.766 h 2.567 c 0.941,0 1.652,0.214 2.133,0.64 0.484,0.426 0.726,1.047 0.726,1.867 0,0.832 -0.242,1.457 -0.726,1.879 -0.481,0.426 -1.192,0.637 -2.133,0.637 h -1.43 v 3.375 h -1.137 z"
             style="fill:#000000;fill-opacity:1;fill-rule:nonzero;stroke:none"
             id="path3511" />
          <path
             d="m 32.191,8.996 c -0.836,0 -1.418,0.098 -1.738,0.289 -0.324,0.192 -0.484,0.516 -0.484,0.977 0,0.367 0.121,0.66 0.359,0.879 0.246,0.214 0.574,0.32 0.992,0.32 0.575,0 1.032,-0.203 1.375,-0.606 0.352,-0.41 0.524,-0.953 0.524,-1.628 V 8.996 Z M 34.254,8.57 v 3.594 h -1.035 v -0.957 c -0.235,0.383 -0.528,0.668 -0.883,0.852 -0.352,0.179 -0.781,0.269 -1.293,0.269 -0.645,0 -1.16,-0.18 -1.539,-0.539 -0.379,-0.363 -0.57,-0.851 -0.57,-1.457 0,-0.711 0.238,-1.246 0.711,-1.605 0.472,-0.36 1.183,-0.539 2.125,-0.539 h 1.449 V 8.086 C 33.219,7.609 33.062,7.242 32.746,6.984 32.438,6.723 31.996,6.59 31.43,6.59 c -0.36,0 -0.707,0.043 -1.051,0.129 -0.34,0.086 -0.668,0.215 -0.984,0.39 V 6.152 c 0.378,-0.148 0.746,-0.257 1.101,-0.328 0.359,-0.074 0.703,-0.113 1.043,-0.113 0.91,0 1.59,0.238 2.043,0.711 0.449,0.473 0.672,1.187 0.672,2.148 z"
             style="fill:#000000;fill-opacity:1;fill-rule:nonzero;stroke:none"
             id="path3513" />
          <path
             d="M 40.922,6.105 V 7.074 C 40.629,6.914 40.332,6.793 40.039,6.715 39.746,6.633 39.449,6.59 39.148,6.59 c -0.671,0 -1.191,0.215 -1.562,0.64 -0.371,0.426 -0.559,1.02 -0.559,1.79 0,0.769 0.188,1.367 0.559,1.796 0.371,0.422 0.891,0.633 1.562,0.633 0.301,0 0.598,-0.039 0.891,-0.117 0.293,-0.082 0.59,-0.203 0.883,-0.367 v 0.957 c -0.289,0.137 -0.59,0.238 -0.902,0.305 -0.305,0.066 -0.633,0.101 -0.985,0.101 -0.949,0 -1.703,-0.297 -2.262,-0.894 -0.558,-0.598 -0.835,-1.403 -0.835,-2.414 0,-1.028 0.281,-1.836 0.843,-2.422 0.567,-0.59 1.34,-0.887 2.324,-0.887 0.317,0 0.629,0.035 0.934,0.101 0.301,0.067 0.598,0.165 0.883,0.293 z"
             style="fill:#000000;fill-opacity:1;fill-rule:nonzero;stroke:none"
             id="path3515" />
          <path
             d="m 42.68,3.41 h 1.043 v 5.172 l 3.086,-2.719 h 1.324 l -3.344,2.949 3.484,3.352 H 46.922 L 43.723,9.086 v 3.078 H 42.68 Z"
             style="fill:#000000;fill-opacity:1;fill-rule:nonzero;stroke:none"
             id="path3517" />
          <path
             d="m 52.051,8.996 c -0.836,0 -1.414,0.098 -1.735,0.289 -0.324,0.192 -0.484,0.516 -0.484,0.977 0,0.367 0.117,0.66 0.359,0.879 0.243,0.214 0.575,0.32 0.989,0.32 0.574,0 1.035,-0.203 1.379,-0.606 0.347,-0.41 0.523,-0.953 0.523,-1.628 V 8.996 Z M 54.117,8.57 v 3.594 h -1.035 v -0.957 c -0.234,0.383 -0.531,0.668 -0.883,0.852 -0.351,0.179 -0.785,0.269 -1.293,0.269 -0.644,0 -1.16,-0.18 -1.543,-0.539 -0.379,-0.363 -0.566,-0.851 -0.566,-1.457 0,-0.711 0.234,-1.246 0.707,-1.605 0.476,-0.36 1.187,-0.539 2.125,-0.539 h 1.453 V 8.086 c 0,-0.477 -0.156,-0.844 -0.473,-1.102 -0.312,-0.261 -0.75,-0.394 -1.316,-0.394 -0.359,0 -0.711,0.043 -1.051,0.129 -0.344,0.086 -0.672,0.215 -0.984,0.39 V 6.152 c 0.379,-0.148 0.746,-0.257 1.101,-0.328 0.356,-0.074 0.703,-0.113 1.039,-0.113 0.914,0 1.594,0.238 2.043,0.711 0.45,0.473 0.676,1.187 0.676,2.148 z"
             style="fill:#000000;fill-opacity:1;fill-rule:nonzero;stroke:none"
             id="path3519" />
          <path
             d="m 60.395,8.941 c 0,-0.75 -0.157,-1.332 -0.469,-1.742 -0.305,-0.414 -0.738,-0.621 -1.297,-0.621 -0.555,0 -0.988,0.207 -1.301,0.621 -0.308,0.41 -0.461,0.992 -0.461,1.742 0,0.747 0.153,1.325 0.461,1.739 0.313,0.414 0.746,0.617 1.301,0.617 0.559,0 0.992,-0.203 1.297,-0.617 0.312,-0.414 0.469,-0.992 0.469,-1.739 z m 1.035,2.442 c 0,1.074 -0.239,1.871 -0.715,2.39 -0.477,0.524 -1.207,0.789 -2.188,0.789 -0.363,0 -0.707,-0.031 -1.031,-0.085 -0.32,-0.051 -0.633,-0.137 -0.937,-0.247 v -1.007 c 0.304,0.164 0.601,0.285 0.898,0.363 0.297,0.082 0.598,0.121 0.906,0.121 0.68,0 1.188,-0.18 1.524,-0.535 0.34,-0.352 0.508,-0.887 0.508,-1.606 v -0.511 c -0.215,0.371 -0.489,0.652 -0.821,0.836 -0.336,0.183 -0.734,0.273 -1.199,0.273 -0.773,0 -1.395,-0.293 -1.867,-0.883 -0.473,-0.59 -0.707,-1.367 -0.707,-2.34 0,-0.976 0.234,-1.757 0.707,-2.343 0.472,-0.59 1.094,-0.887 1.867,-0.887 0.465,0 0.863,0.094 1.199,0.277 0.332,0.184 0.606,0.461 0.821,0.832 V 5.863 h 1.035 z"
             style="fill:#000000;fill-opacity:1;fill-rule:nonzero;stroke:none"
             id="path3521" />
          <path
             d="m 68.949,8.754 v 0.508 h -4.758 c 0.047,0.711 0.258,1.258 0.641,1.633 0.387,0.371 0.922,0.554 1.609,0.554 0.399,0 0.782,-0.047 1.153,-0.144 0.375,-0.098 0.746,-0.246 1.113,-0.442 v 0.981 c -0.371,0.156 -0.75,0.277 -1.141,0.359 -0.39,0.082 -0.785,0.125 -1.187,0.125 -1.004,0 -1.801,-0.293 -2.391,-0.879 -0.586,-0.586 -0.875,-1.375 -0.875,-2.371 0,-1.031 0.278,-1.851 0.832,-2.453 0.559,-0.609 1.309,-0.914 2.254,-0.914 0.848,0 1.516,0.277 2.008,0.824 0.496,0.543 0.742,1.281 0.742,2.219 z M 67.914,8.453 C 67.906,7.887 67.75,7.434 67.438,7.098 67.129,6.758 66.723,6.59 66.211,6.59 c -0.578,0 -1.039,0.164 -1.391,0.488 -0.343,0.328 -0.543,0.785 -0.593,1.379 z"
             style="fill:#000000;fill-opacity:1;fill-rule:nonzero;stroke:none"
             id="path3523" />
          <path
             d="M 74.664,6.051 V 7.027 C 74.371,6.879 74.07,6.766 73.754,6.691 73.438,6.617 73.113,6.578 72.773,6.578 c -0.511,0 -0.898,0.078 -1.156,0.238 -0.254,0.157 -0.383,0.391 -0.383,0.707 0,0.243 0.09,0.43 0.274,0.571 0.183,0.133 0.554,0.261 1.109,0.386 l 0.356,0.079 c 0.734,0.156 1.254,0.382 1.562,0.668 0.313,0.285 0.469,0.687 0.469,1.199 0,0.586 -0.234,1.047 -0.699,1.39 -0.461,0.34 -1.098,0.512 -1.907,0.512 -0.336,0 -0.691,-0.035 -1.058,-0.101 -0.363,-0.063 -0.746,-0.161 -1.152,-0.293 v -1.071 c 0.382,0.199 0.757,0.352 1.128,0.453 0.375,0.098 0.743,0.145 1.106,0.145 0.488,0 0.863,-0.082 1.125,-0.246 0.262,-0.168 0.394,-0.406 0.394,-0.711 0,-0.281 -0.097,-0.496 -0.289,-0.645 C 73.465,9.707 73.051,9.562 72.41,9.426 L 72.051,9.34 C 71.41,9.207 70.945,9 70.66,8.723 70.375,8.441 70.234,8.055 70.234,7.57 c 0,-0.593 0.207,-1.05 0.629,-1.375 0.418,-0.32 1.016,-0.484 1.789,-0.484 0.383,0 0.743,0.031 1.078,0.086 0.34,0.055 0.649,0.141 0.934,0.254 z"
             style="fill:#000000;fill-opacity:1;fill-rule:nonzero;stroke:none"
             id="path3525" />
        </g>
      </g>
    </g>
    <g
       id="g3529"
       clip-path="url(#clipPath4582)">
      <g
         id="g3531"
         clip-path="url(#clipPath3535)">
        <g
           id="g3537">
          <path
             d="m 24.352,19.273 h 1.093 l 1.969,5.289 1.969,-5.289 h 1.097 l -2.363,6.301 h -1.406 z"
             style="fill:#000000;fill-opacity:1;fill-rule:nonzero;stroke:none"
             id="path3539" />
          <path
             d="m 37.297,22.164 v 0.508 h -4.758 c 0.047,0.711 0.258,1.258 0.641,1.633 0.386,0.371 0.922,0.554 1.609,0.554 0.399,0 0.781,-0.047 1.152,-0.144 0.375,-0.098 0.747,-0.246 1.114,-0.442 v 0.981 c -0.371,0.156 -0.75,0.277 -1.141,0.359 -0.391,0.082 -0.785,0.125 -1.187,0.125 -1.004,0 -1.801,-0.293 -2.391,-0.879 -0.582,-0.586 -0.875,-1.375 -0.875,-2.371 0,-1.031 0.277,-1.851 0.832,-2.453 0.559,-0.609 1.309,-0.914 2.254,-0.914 0.848,0 1.519,0.274 2.008,0.824 0.496,0.543 0.742,1.282 0.742,2.219 z M 36.262,21.863 C 36.258,21.297 36.098,20.844 35.785,20.508 35.477,20.168 35.07,20 34.559,20 c -0.579,0 -1.039,0.164 -1.391,0.488 -0.344,0.328 -0.543,0.785 -0.594,1.379 z"
             style="fill:#000000;fill-opacity:1;fill-rule:nonzero;stroke:none"
             id="path3541" />
          <path
             d="m 42.648,20.242 c -0.117,-0.066 -0.246,-0.117 -0.382,-0.144 -0.137,-0.036 -0.286,-0.051 -0.45,-0.051 -0.586,0 -1.035,0.191 -1.351,0.57 C 40.152,20.996 40,21.543 40,22.254 v 3.32 H 38.957 V 19.273 H 40 v 0.981 c 0.215,-0.383 0.5,-0.668 0.848,-0.852 0.347,-0.187 0.773,-0.281 1.269,-0.281 0.074,0 0.153,0.008 0.238,0.02 0.086,0.007 0.184,0.019 0.286,0.039 z"
             style="fill:#000000;fill-opacity:1;fill-rule:nonzero;stroke:none"
             id="path3543" />
          <path
             d="m 47.75,19.461 v 0.977 c -0.293,-0.149 -0.598,-0.262 -0.91,-0.336 -0.317,-0.075 -0.645,-0.114 -0.981,-0.114 -0.511,0 -0.898,0.078 -1.16,0.239 -0.254,0.156 -0.379,0.39 -0.379,0.707 0,0.242 0.09,0.429 0.274,0.57 0.183,0.133 0.554,0.262 1.109,0.387 l 0.352,0.078 c 0.738,0.156 1.257,0.379 1.566,0.668 0.309,0.285 0.465,0.687 0.465,1.199 0,0.586 -0.231,1.047 -0.695,1.391 -0.461,0.339 -1.098,0.511 -1.907,0.511 -0.339,0 -0.691,-0.035 -1.058,-0.101 -0.364,-0.063 -0.75,-0.16 -1.153,-0.293 v -1.071 c 0.383,0.2 0.758,0.352 1.129,0.454 0.371,0.097 0.739,0.144 1.102,0.144 0.488,0 0.863,-0.082 1.125,-0.246 0.266,-0.168 0.394,-0.406 0.394,-0.711 0,-0.281 -0.093,-0.496 -0.285,-0.644 -0.187,-0.153 -0.601,-0.297 -1.246,-0.434 L 45.133,22.75 c -0.641,-0.133 -1.102,-0.34 -1.387,-0.617 -0.285,-0.281 -0.43,-0.668 -0.43,-1.153 0,-0.593 0.211,-1.05 0.629,-1.375 0.422,-0.32 1.02,-0.484 1.789,-0.484 0.383,0 0.743,0.031 1.082,0.086 0.336,0.055 0.649,0.141 0.934,0.254 z"
             style="fill:#000000;fill-opacity:1;fill-rule:nonzero;stroke:none"
             id="path3545" />
          <path
             d="m 49.734,19.273 h 1.036 v 6.301 h -1.036 z m 0,-2.453 h 1.036 v 1.313 h -1.036 z"
             style="fill:#000000;fill-opacity:1;fill-rule:nonzero;stroke:none"
             id="path3547" />
          <path
             d="m 55.379,20 c -0.559,0 -0.996,0.219 -1.317,0.652 -0.324,0.43 -0.484,1.024 -0.484,1.778 0,0.754 0.16,1.347 0.477,1.785 0.324,0.43 0.765,0.644 1.324,0.644 0.551,0 0.988,-0.214 1.309,-0.652 0.324,-0.434 0.484,-1.027 0.484,-1.777 0,-0.746 -0.16,-1.336 -0.484,-1.77 C 56.367,20.219 55.93,20 55.379,20 Z m 0,-0.879 c 0.898,0 1.605,0.293 2.117,0.879 0.516,0.586 0.774,1.395 0.774,2.43 0,1.031 -0.258,1.84 -0.774,2.429 -0.512,0.586 -1.219,0.879 -2.117,0.879 -0.906,0 -1.613,-0.293 -2.129,-0.879 -0.508,-0.589 -0.766,-1.398 -0.766,-2.429 0,-1.035 0.258,-1.844 0.766,-2.43 0.516,-0.586 1.223,-0.879 2.129,-0.879 z"
             style="fill:#000000;fill-opacity:1;fill-rule:nonzero;stroke:none"
             id="path3549" />
          <path
             d="m 65.223,21.773 v 3.801 h -1.035 v -3.769 c 0,-0.594 -0.118,-1.043 -0.352,-1.336 -0.231,-0.297 -0.578,-0.446 -1.047,-0.446 -0.559,0 -0.996,0.176 -1.32,0.536 -0.321,0.355 -0.485,0.839 -0.485,1.457 v 3.558 h -1.039 v -6.301 h 1.039 v 0.981 c 0.25,-0.379 0.539,-0.664 0.871,-0.852 0.34,-0.187 0.727,-0.281 1.168,-0.281 0.723,0 1.27,0.227 1.641,0.676 0.371,0.445 0.559,1.105 0.559,1.976 z"
             style="fill:#000000;fill-opacity:1;fill-rule:nonzero;stroke:none"
             id="path3551" />
          <path
             d="m 70.586,17.176 h 1.223 l 2.086,3.121 2.097,-3.121 h 1.223 l -2.703,4.035 2.883,4.363 h -1.223 l -2.363,-3.57 -2.379,3.57 h -1.227 l 3,-4.484 z"
             style="fill:#000000;fill-opacity:1;fill-rule:nonzero;stroke:none"
             id="path3553" />
        </g>
      </g>
    </g>
    <g
       id="g3557"
       clip-path="url(#clipPath4601)">
      <g
         id="g3559"
         clip-path="url(#clipPath3563)">
        <g
           id="g3565">
          <g
             id="g3567">
            <path
               d="m 110.035,86.883 h 93.121 c 2.125,0 3.84,1.711 3.84,3.84 v 21.117 c 0,2.129 -1.715,3.84 -3.84,3.84 h -93.121 c -2.129,0 -3.84,-1.711 -3.84,-3.84 V 90.723 c 0,-2.129 1.711,-3.84 3.84,-3.84 z"
               style="fill:none;stroke:#70b453;stroke-width:0.96;stroke-linecap:butt;stroke-linejoin:miter;stroke-miterlimit:1.45;stroke-dasharray:none;stroke-opacity:1"
               id="path3569" />
          </g>
        </g>
      </g>
    </g>
    <g
       id="g3573"
       clip-path="url(#clipPath4816)">
      <g
         id="g3575"
         clip-path="url(#clipPath3579)">
        <g
           id="g3581">
          <path
             d="m 115.324,96.871 h 5.309 v 0.957 h -4.172 v 2.484 h 4 v 0.958 h -4 v 3.042 h 4.273 v 0.958 h -5.41 z"
             style="fill:#70b453;fill-opacity:1;fill-rule:nonzero;stroke:none"
             id="path3583" />
          <path
             d="m 127.797,101.469 v 3.801 h -1.035 v -3.77 c 0,-0.594 -0.117,-1.043 -0.352,-1.34 -0.23,-0.293 -0.582,-0.441 -1.047,-0.441 -0.558,0 -0.996,0.176 -1.32,0.535 -0.324,0.355 -0.484,0.84 -0.484,1.453 v 3.563 h -1.039 v -6.301 h 1.039 v 0.98 c 0.25,-0.379 0.539,-0.664 0.871,-0.851 0.34,-0.188 0.726,-0.282 1.164,-0.282 0.726,0 1.273,0.227 1.644,0.676 0.371,0.446 0.559,1.106 0.559,1.977 z"
             style="fill:#70b453;fill-opacity:1;fill-rule:nonzero;stroke:none"
             id="path3585" />
          <path
             d="m 129.117,98.969 h 1.098 l 1.969,5.289 1.968,-5.289 h 1.098 l -2.363,6.301 h -1.407 z"
             style="fill:#70b453;fill-opacity:1;fill-rule:nonzero;stroke:none"
             id="path3587" />
          <path
             d="m 136.676,98.969 h 1.035 v 6.301 h -1.035 z m 0,-2.453 h 1.035 v 1.312 h -1.035 z"
             style="fill:#70b453;fill-opacity:1;fill-rule:nonzero;stroke:none"
             id="path3589" />
          <path
             d="m 143.527,99.938 c -0.117,-0.067 -0.242,-0.118 -0.382,-0.149 -0.133,-0.031 -0.286,-0.051 -0.45,-0.051 -0.586,0 -1.035,0.192 -1.351,0.574 -0.309,0.379 -0.465,0.926 -0.465,1.637 v 3.321 h -1.039 v -6.301 h 1.039 v 0.98 c 0.219,-0.383 0.5,-0.668 0.848,-0.851 0.351,-0.188 0.773,-0.282 1.273,-0.282 0.07,0 0.148,0.008 0.234,0.02 0.086,0.008 0.184,0.019 0.289,0.039 z"
             style="fill:#70b453;fill-opacity:1;fill-rule:nonzero;stroke:none"
             id="path3591" />
          <path
             d="m 146.801,99.695 c -0.555,0 -0.992,0.219 -1.317,0.653 -0.32,0.429 -0.484,1.023 -0.484,1.777 0,0.754 0.16,1.348 0.48,1.785 0.321,0.43 0.762,0.645 1.321,0.645 0.551,0 0.988,-0.219 1.312,-0.653 0.321,-0.433 0.485,-1.027 0.485,-1.777 0,-0.746 -0.164,-1.336 -0.485,-1.773 -0.324,-0.438 -0.761,-0.657 -1.312,-0.657 z m 0,-0.879 c 0.902,0 1.609,0.293 2.121,0.879 0.516,0.586 0.769,1.395 0.769,2.43 0,1.031 -0.253,1.84 -0.769,2.43 -0.512,0.586 -1.219,0.879 -2.121,0.879 -0.903,0 -1.613,-0.293 -2.125,-0.879 -0.512,-0.59 -0.766,-1.399 -0.766,-2.43 0,-1.035 0.254,-1.844 0.766,-2.43 0.512,-0.586 1.222,-0.879 2.125,-0.879 z"
             style="fill:#70b453;fill-opacity:1;fill-rule:nonzero;stroke:none"
             id="path3593" />
          <path
             d="m 156.645,101.469 v 3.801 h -1.036 v -3.77 c 0,-0.594 -0.113,-1.043 -0.347,-1.34 -0.231,-0.293 -0.582,-0.441 -1.047,-0.441 -0.559,0 -1,0.176 -1.32,0.535 -0.325,0.355 -0.485,0.84 -0.485,1.453 v 3.563 h -1.039 v -6.301 h 1.039 v 0.98 c 0.246,-0.379 0.539,-0.664 0.871,-0.851 0.34,-0.188 0.727,-0.282 1.164,-0.282 0.727,0 1.274,0.227 1.645,0.676 0.371,0.446 0.555,1.106 0.555,1.977 z"
             style="fill:#70b453;fill-opacity:1;fill-rule:nonzero;stroke:none"
             id="path3595" />
          <path
             d="m 163.613,100.18 c 0.262,-0.465 0.571,-0.809 0.93,-1.032 0.359,-0.218 0.785,-0.332 1.269,-0.332 0.657,0 1.165,0.231 1.52,0.692 0.356,0.461 0.535,1.113 0.535,1.961 v 3.801 h -1.039 v -3.77 c 0,-0.602 -0.109,-1.051 -0.32,-1.344 -0.215,-0.293 -0.543,-0.437 -0.981,-0.437 -0.535,0 -0.961,0.176 -1.269,0.535 -0.313,0.355 -0.469,0.84 -0.469,1.453 v 3.563 h -1.039 v -3.77 c 0,-0.605 -0.109,-1.055 -0.32,-1.344 -0.215,-0.293 -0.547,-0.437 -0.992,-0.437 -0.528,0 -0.95,0.179 -1.258,0.539 -0.313,0.355 -0.469,0.84 -0.469,1.449 v 3.563 h -1.039 v -6.301 h 1.039 v 0.98 c 0.238,-0.387 0.519,-0.672 0.851,-0.855 0.329,-0.184 0.719,-0.278 1.172,-0.278 0.461,0 0.848,0.118 1.168,0.352 0.321,0.23 0.559,0.57 0.711,1.012 z"
             style="fill:#70b453;fill-opacity:1;fill-rule:nonzero;stroke:none"
             id="path3597" />
          <path
             d="m 175.32,101.859 v 0.508 h -4.758 c 0.043,0.711 0.258,1.258 0.641,1.633 0.387,0.371 0.922,0.555 1.609,0.555 0.399,0 0.782,-0.047 1.153,-0.145 0.375,-0.098 0.746,-0.246 1.113,-0.441 v 0.98 c -0.371,0.156 -0.75,0.278 -1.14,0.36 -0.391,0.082 -0.786,0.125 -1.188,0.125 -1.004,0 -1.801,-0.293 -2.391,-0.879 -0.586,-0.586 -0.879,-1.375 -0.879,-2.375 0,-1.032 0.278,-1.848 0.832,-2.45 0.563,-0.609 1.313,-0.914 2.258,-0.914 0.848,0 1.516,0.274 2.008,0.825 0.496,0.543 0.742,1.281 0.742,2.218 z m -1.035,-0.3 c -0.008,-0.567 -0.168,-1.02 -0.476,-1.356 -0.309,-0.34 -0.719,-0.508 -1.227,-0.508 -0.578,0 -1.043,0.164 -1.391,0.489 -0.343,0.328 -0.543,0.785 -0.597,1.378 z"
             style="fill:#70b453;fill-opacity:1;fill-rule:nonzero;stroke:none"
             id="path3599" />
          <path
             d="m 182.258,101.469 v 3.801 h -1.035 v -3.77 c 0,-0.594 -0.118,-1.043 -0.352,-1.34 -0.23,-0.293 -0.578,-0.441 -1.043,-0.441 -0.562,0 -1,0.176 -1.324,0.535 -0.32,0.355 -0.484,0.84 -0.484,1.453 v 3.563 h -1.04 v -6.301 h 1.04 v 0.98 c 0.25,-0.379 0.539,-0.664 0.871,-0.851 0.339,-0.188 0.726,-0.282 1.168,-0.282 0.722,0 1.269,0.227 1.64,0.676 0.371,0.446 0.559,1.106 0.559,1.977 z"
             style="fill:#70b453;fill-opacity:1;fill-rule:nonzero;stroke:none"
             id="path3601" />
          <path
             d="m 185.344,97.18 v 1.789 h 2.133 v 0.804 h -2.133 v 3.422 c 0,0.512 0.07,0.844 0.207,0.989 0.144,0.148 0.429,0.218 0.863,0.218 h 1.063 v 0.868 h -1.063 c -0.801,0 -1.352,-0.149 -1.656,-0.446 -0.301,-0.301 -0.453,-0.844 -0.453,-1.629 v -3.422 h -0.762 v -0.804 h 0.762 V 97.18 Z"
             style="fill:#70b453;fill-opacity:1;fill-rule:nonzero;stroke:none"
             id="path3603" />
          <path
             d="m 193.625,104.312 h 3.965 v 0.958 h -5.332 v -0.958 c 0.43,-0.445 1.019,-1.042 1.762,-1.792 0.746,-0.754 1.214,-1.239 1.406,-1.458 0.363,-0.41 0.617,-0.753 0.758,-1.035 0.144,-0.285 0.218,-0.566 0.218,-0.839 0,-0.446 -0.156,-0.809 -0.472,-1.09 -0.309,-0.282 -0.719,-0.422 -1.219,-0.422 -0.356,0 -0.734,0.062 -1.133,0.187 -0.39,0.121 -0.812,0.309 -1.266,0.563 v -1.149 c 0.458,-0.183 0.887,-0.324 1.286,-0.418 0.394,-0.093 0.761,-0.14 1.09,-0.14 0.871,0 1.562,0.219 2.082,0.652 0.515,0.438 0.777,1.016 0.777,1.746 0,0.344 -0.067,0.672 -0.199,0.985 -0.129,0.304 -0.364,0.668 -0.703,1.089 -0.094,0.11 -0.391,0.422 -0.895,0.946 -0.5,0.515 -1.211,1.242 -2.125,2.175 z"
             style="fill:#70b453;fill-opacity:1;fill-rule:nonzero;stroke:none"
             id="path3605" />
        </g>
      </g>
    </g>
    <g
       id="g3609"
       clip-path="url(#clipPath4641)">
      <g
         id="g3611"
         clip-path="url(#clipPath3615)">
        <g
           id="g3617">
          <g
             id="g3619">
            <path
               d="m 110.035,29.281 h 93.121 c 2.125,0 3.84,1.711 3.84,3.84 v 21.121 c 0,2.125 -1.715,3.84 -3.84,3.84 h -93.121 c -2.129,0 -3.84,-1.715 -3.84,-3.84 V 33.121 c 0,-2.129 1.711,-3.84 3.84,-3.84 z"
               style="fill:#79a7ce;fill-opacity:1;fill-rule:nonzero;stroke:#000000;stroke-width:0.96;stroke-linecap:butt;stroke-linejoin:miter;stroke-miterlimit:1.45;stroke-dasharray:none;stroke-opacity:1"
               id="path3621" />
          </g>
        </g>
      </g>
    </g>
    <g
       id="g3625"
       clip-path="url(#clipPath4888)">
      <g
         id="g3627"
         clip-path="url(#clipPath3631)">
        <g
           id="g3633">
          <path
             d="m 125.082,43.73 c 0.246,0.086 0.48,0.262 0.711,0.532 0.23,0.269 0.465,0.64 0.695,1.113 l 1.157,2.293 h -1.223 l -1.074,-2.152 c -0.278,-0.563 -0.547,-0.938 -0.809,-1.121 -0.258,-0.184 -0.613,-0.274 -1.062,-0.274 h -1.239 v 3.547 h -1.136 V 39.27 h 2.566 c 0.957,0 1.676,0.203 2.148,0.605 0.473,0.398 0.707,1.004 0.707,1.816 0,0.528 -0.125,0.965 -0.371,1.317 -0.242,0.347 -0.601,0.59 -1.07,0.722 z m -2.844,-3.523 v 2.981 h 1.43 c 0.547,0 0.957,-0.126 1.234,-0.379 0.282,-0.254 0.422,-0.629 0.422,-1.118 0,-0.492 -0.14,-0.863 -0.422,-1.109 -0.277,-0.25 -0.687,-0.375 -1.234,-0.375 z"
             style="fill:#000000;fill-opacity:1;fill-rule:nonzero;stroke:none"
             id="path3635" />
          <path
             d="m 133.078,41.555 v 0.98 c -0.293,-0.152 -0.598,-0.265 -0.914,-0.34 -0.312,-0.074 -0.641,-0.113 -0.976,-0.113 -0.516,0 -0.903,0.082 -1.161,0.238 -0.254,0.157 -0.382,0.395 -0.382,0.707 0,0.243 0.093,0.43 0.277,0.571 0.183,0.132 0.551,0.265 1.109,0.386 l 0.352,0.078 c 0.734,0.161 1.258,0.383 1.566,0.672 0.309,0.286 0.465,0.684 0.465,1.196 0,0.586 -0.23,1.05 -0.695,1.39 -0.465,0.34 -1.098,0.512 -1.91,0.512 -0.336,0 -0.688,-0.031 -1.055,-0.102 -0.363,-0.062 -0.75,-0.16 -1.156,-0.292 v -1.067 c 0.382,0.199 0.761,0.348 1.132,0.449 0.372,0.098 0.739,0.145 1.102,0.145 0.488,0 0.863,-0.082 1.125,-0.246 0.262,-0.168 0.395,-0.407 0.395,-0.707 0,-0.282 -0.098,-0.5 -0.286,-0.649 -0.187,-0.148 -0.605,-0.293 -1.246,-0.433 l -0.359,-0.082 c -0.641,-0.137 -1.106,-0.344 -1.391,-0.621 -0.285,-0.282 -0.425,-0.665 -0.425,-1.153 0,-0.594 0.21,-1.051 0.628,-1.371 0.422,-0.324 1.016,-0.484 1.789,-0.484 0.383,0 0.743,0.027 1.083,0.082 0.335,0.058 0.648,0.14 0.933,0.254 z"
             style="fill:#000000;fill-opacity:1;fill-rule:nonzero;stroke:none"
             id="path3637" />
          <path
             d="m 136.086,39.582 v 1.789 h 2.133 v 0.805 h -2.133 v 3.418 c 0,0.515 0.07,0.844 0.207,0.988 0.145,0.148 0.43,0.223 0.863,0.223 h 1.063 v 0.863 h -1.063 c -0.801,0 -1.351,-0.148 -1.656,-0.441 -0.301,-0.301 -0.453,-0.844 -0.453,-1.633 v -3.418 h -0.762 v -0.805 h 0.762 v -1.789 z"
             style="fill:#000000;fill-opacity:1;fill-rule:nonzero;stroke:none"
             id="path3639" />
          <path
             d="m 139.473,45.184 v -3.813 h 1.035 v 3.774 c 0,0.593 0.117,1.043 0.347,1.343 0.235,0.297 0.583,0.446 1.047,0.446 0.559,0 1,-0.18 1.321,-0.536 0.328,-0.355 0.492,-0.843 0.492,-1.457 v -3.57 h 1.035 v 6.297 h -1.035 v -0.965 c -0.254,0.383 -0.543,0.668 -0.879,0.856 -0.328,0.183 -0.715,0.273 -1.152,0.273 -0.723,0 -1.274,-0.223 -1.649,-0.676 -0.375,-0.449 -0.562,-1.105 -0.562,-1.972 z"
             style="fill:#000000;fill-opacity:1;fill-rule:nonzero;stroke:none"
             id="path3641" />
          <path
             d="m 151.027,42.324 v -3.406 h 1.035 v 8.75 h -1.035 v -0.945 c -0.218,0.375 -0.496,0.656 -0.828,0.839 -0.328,0.18 -0.726,0.27 -1.191,0.27 -0.762,0 -1.383,-0.305 -1.863,-0.91 -0.477,-0.61 -0.715,-1.406 -0.715,-2.399 0,-0.988 0.238,-1.785 0.715,-2.394 0.48,-0.609 1.101,-0.91 1.863,-0.91 0.465,0 0.863,0.09 1.191,0.273 0.332,0.18 0.61,0.457 0.828,0.832 z m -3.527,2.199 c 0,0.762 0.156,1.36 0.465,1.797 0.316,0.43 0.746,0.645 1.297,0.645 0.547,0 0.976,-0.215 1.293,-0.645 0.312,-0.437 0.472,-1.035 0.472,-1.797 0,-0.757 -0.16,-1.355 -0.472,-1.785 -0.317,-0.437 -0.746,-0.656 -1.293,-0.656 -0.551,0 -0.981,0.219 -1.297,0.656 -0.309,0.43 -0.465,1.028 -0.465,1.785 z"
             style="fill:#000000;fill-opacity:1;fill-rule:nonzero;stroke:none"
             id="path3643" />
          <path
             d="m 154.191,41.371 h 1.036 v 6.297 h -1.036 z m 0,-2.453 h 1.036 v 1.309 h -1.036 z"
             style="fill:#000000;fill-opacity:1;fill-rule:nonzero;stroke:none"
             id="path3645" />
          <path
             d="m 159.836,42.094 c -0.555,0 -0.996,0.218 -1.316,0.652 -0.325,0.434 -0.485,1.024 -0.485,1.777 0,0.754 0.16,1.352 0.477,1.786 0.324,0.429 0.765,0.648 1.324,0.648 0.551,0 0.988,-0.219 1.309,-0.656 0.324,-0.434 0.484,-1.028 0.484,-1.778 0,-0.746 -0.16,-1.335 -0.484,-1.769 -0.321,-0.438 -0.758,-0.66 -1.309,-0.66 z m 0,-0.875 c 0.898,0 1.605,0.293 2.121,0.875 0.512,0.586 0.77,1.394 0.77,2.429 0,1.032 -0.258,1.844 -0.77,2.434 -0.516,0.582 -1.223,0.875 -2.121,0.875 -0.906,0 -1.613,-0.293 -2.129,-0.875 -0.508,-0.59 -0.762,-1.402 -0.762,-2.434 0,-1.035 0.254,-1.843 0.762,-2.429 0.516,-0.582 1.223,-0.875 2.129,-0.875 z"
             style="fill:#000000;fill-opacity:1;fill-rule:nonzero;stroke:none"
             id="path3647" />
          <path
             d="m 170.316,47.668 -3.207,-8.398 h 1.188 l 2.66,7.074 2.664,-7.074 h 1.184 l -3.203,8.398 z"
             style="fill:#000000;fill-opacity:1;fill-rule:nonzero;stroke:none"
             id="path3649" />
          <path
             d="m 176.328,46.715 h 1.856 v -6.41 l -2.02,0.406 v -1.035 l 2.008,-0.406 h 1.137 v 7.445 h 1.855 v 0.953 h -4.836 z"
             style="fill:#000000;fill-opacity:1;fill-rule:nonzero;stroke:none"
             id="path3651" />
          <path
             d="m 183.461,46.242 h 1.188 v 1.426 h -1.188 z"
             style="fill:#000000;fill-opacity:1;fill-rule:nonzero;stroke:none"
             id="path3653" />
          <path
             d="m 187.133,39.27 h 4.461 v 0.957 h -3.422 v 2.058 c 0.168,-0.055 0.332,-0.097 0.496,-0.121 0.164,-0.031 0.332,-0.047 0.496,-0.047 0.938,0 1.68,0.258 2.227,0.77 0.547,0.515 0.82,1.211 0.82,2.09 0,0.902 -0.281,1.605 -0.844,2.109 -0.562,0.496 -1.355,0.746 -2.379,0.746 -0.351,0 -0.711,-0.031 -1.078,-0.09 -0.363,-0.058 -0.742,-0.148 -1.133,-0.269 v -1.141 c 0.34,0.184 0.688,0.32 1.047,0.41 0.36,0.09 0.742,0.133 1.145,0.133 0.648,0 1.16,-0.168 1.539,-0.512 0.379,-0.34 0.57,-0.804 0.57,-1.386 0,-0.586 -0.191,-1.051 -0.57,-1.391 -0.379,-0.34 -0.891,-0.512 -1.539,-0.512 -0.305,0 -0.61,0.035 -0.914,0.102 -0.301,0.066 -0.606,0.172 -0.922,0.312 z"
             style="fill:#000000;fill-opacity:1;fill-rule:nonzero;stroke:none"
             id="path3655" />
        </g>
      </g>
    </g>
    <g
       id="g3659"
       clip-path="url(#clipPath4762)">
      <g
         id="g3661"
         clip-path="url(#clipPath3665)">
        <g
           id="g3667">
          <g
             id="g3669">
            <path
               d="m 4.32,58.082 h 93.121 c 2.125,0 3.84,1.711 3.84,3.84 v 21.121 c 0,2.125 -1.715,3.84 -3.84,3.84 H 4.32 c -2.129,0 -3.84,-1.715 -3.84,-3.84 V 61.922 c 0,-2.129 1.711,-3.84 3.84,-3.84 z"
               style="fill:#79a7ce;fill-opacity:1;fill-rule:nonzero;stroke:#000000;stroke-width:0.96;stroke-linecap:butt;stroke-linejoin:miter;stroke-miterlimit:1.45;stroke-dasharray:none;stroke-opacity:1"
               id="path3671" />
          </g>
        </g>
      </g>
    </g>
    <g
       id="g3675"
       clip-path="url(#clipPath4910)">
      <g
         id="g3677"
         clip-path="url(#clipPath3681)">
        <g
           id="g3683">
          <path
             d="m 37.059,72.531 c 0.246,0.082 0.48,0.258 0.711,0.531 0.23,0.27 0.464,0.641 0.695,1.114 l 1.152,2.293 h -1.219 l -1.074,-2.153 c -0.277,-0.562 -0.547,-0.937 -0.808,-1.121 -0.262,-0.183 -0.614,-0.273 -1.067,-0.273 h -1.234 v 3.547 H 33.078 V 68.07 h 2.563 c 0.961,0 1.675,0.203 2.148,0.602 0.473,0.402 0.711,1.008 0.711,1.816 0,0.532 -0.125,0.969 -0.371,1.317 -0.246,0.351 -0.602,0.593 -1.07,0.726 z m -2.844,-3.527 v 2.984 h 1.426 c 0.547,0 0.961,-0.129 1.238,-0.379 0.281,-0.254 0.422,-0.629 0.422,-1.121 0,-0.488 -0.141,-0.859 -0.422,-1.105 -0.277,-0.254 -0.691,-0.379 -1.238,-0.379 z"
             style="fill:#000000;fill-opacity:1;fill-rule:nonzero;stroke:none"
             id="path3685" />
          <path
             d="M 46.91,76.469 43.703,68.07 h 1.188 l 2.66,7.071 2.664,-7.071 h 1.183 l -3.203,8.399 z"
             style="fill:#000000;fill-opacity:1;fill-rule:nonzero;stroke:none"
             id="path3687" />
          <path
             d="m 56.168,71.941 c 0.543,0.118 0.969,0.36 1.27,0.727 0.308,0.367 0.46,0.82 0.46,1.359 0,0.828 -0.285,1.473 -0.851,1.926 -0.57,0.453 -1.383,0.68 -2.434,0.68 -0.351,0 -0.715,-0.035 -1.09,-0.106 -0.371,-0.07 -0.753,-0.172 -1.152,-0.312 v -1.094 c 0.317,0.184 0.66,0.32 1.035,0.414 0.375,0.094 0.766,0.141 1.176,0.141 0.711,0 1.254,-0.141 1.625,-0.422 0.375,-0.281 0.563,-0.688 0.563,-1.227 0,-0.492 -0.176,-0.879 -0.524,-1.156 -0.344,-0.281 -0.828,-0.422 -1.445,-0.422 H 53.82 v -0.933 h 1.024 c 0.562,0 0.988,-0.114 1.285,-0.332 0.297,-0.227 0.445,-0.551 0.445,-0.969 0,-0.43 -0.156,-0.762 -0.465,-0.992 -0.3,-0.231 -0.738,-0.348 -1.308,-0.348 -0.313,0 -0.645,0.035 -1,0.102 -0.36,0.066 -0.75,0.171 -1.176,0.316 v -1.012 c 0.43,-0.121 0.832,-0.211 1.207,-0.273 0.379,-0.059 0.734,-0.09 1.07,-0.09 0.864,0 1.543,0.199 2.047,0.594 0.504,0.386 0.754,0.918 0.754,1.586 0,0.464 -0.133,0.859 -0.398,1.179 -0.266,0.321 -0.645,0.539 -1.137,0.664 z"
             style="fill:#000000;fill-opacity:1;fill-rule:nonzero;stroke:none"
             id="path3689" />
          <path
             d="m 60.055,75.039 h 1.188 v 1.43 h -1.188 z"
             style="fill:#000000;fill-opacity:1;fill-rule:nonzero;stroke:none"
             id="path3691" />
          <path
             d="m 63.727,68.07 h 4.461 v 0.957 H 64.77 v 2.059 c 0.164,-0.055 0.328,-0.098 0.492,-0.125 0.168,-0.027 0.332,-0.043 0.496,-0.043 0.937,0 1.68,0.258 2.226,0.77 0.547,0.515 0.825,1.21 0.825,2.085 0,0.907 -0.282,1.61 -0.844,2.11 -0.563,0.5 -1.356,0.75 -2.383,0.75 -0.352,0 -0.711,-0.031 -1.078,-0.09 -0.363,-0.059 -0.742,-0.148 -1.129,-0.27 v -1.144 c 0.336,0.187 0.684,0.324 1.043,0.414 0.363,0.09 0.742,0.133 1.144,0.133 0.649,0 1.161,-0.172 1.54,-0.512 0.378,-0.34 0.57,-0.805 0.57,-1.391 0,-0.582 -0.192,-1.046 -0.57,-1.386 -0.379,-0.344 -0.891,-0.512 -1.54,-0.512 -0.304,0 -0.609,0.031 -0.914,0.102 -0.296,0.066 -0.605,0.171 -0.921,0.312 z"
             style="fill:#000000;fill-opacity:1;fill-rule:nonzero;stroke:none"
             id="path3693" />
        </g>
      </g>
    </g>
    <g
       id="g3697"
       clip-path="url(#clipPath4488)">
      <g
         id="g3699"
         clip-path="url(#clipPath3703)">
        <g
           id="g3705">
          <g
             id="g3707">
            <path
               d="m 110.035,58.082 h 93.121 c 2.125,0 3.84,1.711 3.84,3.84 v 21.121 c 0,2.125 -1.715,3.84 -3.84,3.84 h -93.121 c -2.129,0 -3.84,-1.715 -3.84,-3.84 V 61.922 c 0,-2.129 1.711,-3.84 3.84,-3.84 z"
               style="fill:#79a7ce;fill-opacity:1;fill-rule:nonzero;stroke:#000000;stroke-width:0.96;stroke-linecap:butt;stroke-linejoin:miter;stroke-miterlimit:1.45;stroke-dasharray:none;stroke-opacity:1"
               id="path3709" />
          </g>
        </g>
      </g>
    </g>
    <g
       id="g3713"
       clip-path="url(#clipPath4622)">
      <g
         id="g3715"
         clip-path="url(#clipPath3719)">
        <g
           id="g3721">
          <path
             d="m 146.715,72.531 c 0.242,0.082 0.48,0.258 0.707,0.531 0.234,0.27 0.465,0.641 0.699,1.114 l 1.152,2.293 h -1.218 l -1.075,-2.153 c -0.277,-0.562 -0.55,-0.937 -0.812,-1.121 -0.258,-0.183 -0.613,-0.273 -1.063,-0.273 h -1.238 v 3.547 H 142.73 V 68.07 h 2.567 c 0.961,0 1.676,0.203 2.148,0.602 0.473,0.402 0.711,1.008 0.711,1.816 0,0.532 -0.125,0.969 -0.371,1.317 -0.246,0.351 -0.601,0.593 -1.07,0.726 z m -2.848,-3.527 v 2.984 h 1.43 c 0.547,0 0.961,-0.129 1.238,-0.379 0.281,-0.254 0.422,-0.629 0.422,-1.121 0,-0.488 -0.141,-0.859 -0.422,-1.105 -0.277,-0.254 -0.691,-0.379 -1.238,-0.379 z"
             style="fill:#000000;fill-opacity:1;fill-rule:nonzero;stroke:none"
             id="path3723" />
          <path
             d="m 157.621,69.062 -2.867,4.481 h 2.867 z m -0.297,-0.992 h 1.43 v 5.473 h 1.195 v 0.945 h -1.195 v 1.981 h -1.133 v -1.981 h -3.789 v -1.093 z"
             style="fill:#000000;fill-opacity:1;fill-rule:nonzero;stroke:none"
             id="path3725" />
          <path
             d="m 161.828,75.039 h 1.188 v 1.43 h -1.188 z"
             style="fill:#000000;fill-opacity:1;fill-rule:nonzero;stroke:none"
             id="path3727" />
          <path
             d="m 168.934,71.941 c 0.543,0.118 0.968,0.36 1.269,0.727 0.309,0.367 0.461,0.82 0.461,1.359 0,0.828 -0.281,1.473 -0.852,1.926 -0.57,0.453 -1.382,0.68 -2.429,0.68 -0.356,0 -0.719,-0.035 -1.094,-0.106 -0.371,-0.07 -0.754,-0.172 -1.152,-0.312 v -1.094 c 0.316,0.184 0.66,0.32 1.035,0.414 0.375,0.094 0.766,0.141 1.176,0.141 0.711,0 1.254,-0.141 1.625,-0.422 0.375,-0.281 0.562,-0.688 0.562,-1.227 0,-0.492 -0.176,-0.879 -0.523,-1.156 -0.344,-0.281 -0.828,-0.422 -1.446,-0.422 h -0.98 v -0.933 h 1.027 c 0.559,0 0.985,-0.114 1.282,-0.332 0.296,-0.227 0.445,-0.551 0.445,-0.969 0,-0.43 -0.156,-0.762 -0.461,-0.992 -0.305,-0.231 -0.742,-0.348 -1.313,-0.348 -0.312,0 -0.644,0.035 -1,0.102 -0.355,0.066 -0.75,0.171 -1.175,0.316 v -1.012 c 0.429,-0.121 0.832,-0.211 1.207,-0.273 0.379,-0.059 0.738,-0.09 1.07,-0.09 0.863,0 1.543,0.199 2.047,0.594 0.504,0.386 0.754,0.918 0.754,1.586 0,0.464 -0.133,0.859 -0.399,1.179 -0.265,0.321 -0.644,0.539 -1.136,0.664 z"
             style="fill:#000000;fill-opacity:1;fill-rule:nonzero;stroke:none"
             id="path3729" />
        </g>
      </g>
    </g>
    <g
       id="g3733"
       clip-path="url(#clipPath4970)">
      <g
         id="g3735"
         clip-path="url(#clipPath3739)">
        <g
           id="g3741">
          <g
             id="g3743">
            <path
               d="m 4.32,29.281 h 93.121 c 2.125,0 3.84,1.711 3.84,3.84 v 21.121 c 0,2.125 -1.715,3.84 -3.84,3.84 H 4.32 c -2.129,0 -3.84,-1.715 -3.84,-3.84 V 33.121 c 0,-2.129 1.711,-3.84 3.84,-3.84 z"
               style="fill:#79a7ce;fill-opacity:1;fill-rule:nonzero;stroke:#000000;stroke-width:0.96;stroke-linecap:butt;stroke-linejoin:miter;stroke-miterlimit:1.45;stroke-dasharray:none;stroke-opacity:1"
               id="path3745" />
          </g>
        </g>
      </g>
    </g>
    <g
       id="g3749"
       clip-path="url(#clipPath4667)">
      <g
         id="g3751"
         clip-path="url(#clipPath3755)">
        <g
           id="g3757">
          <path
             d="m 24.863,43.73 c 0.246,0.086 0.481,0.262 0.711,0.532 0.231,0.269 0.465,0.64 0.696,1.113 l 1.152,2.293 H 26.203 L 25.129,45.516 C 24.852,44.953 24.582,44.578 24.32,44.395 24.059,44.211 23.707,44.121 23.254,44.121 H 22.02 v 3.547 H 20.883 V 39.27 h 2.562 c 0.961,0 1.676,0.203 2.149,0.605 0.472,0.398 0.711,1.004 0.711,1.816 0,0.528 -0.125,0.965 -0.371,1.317 -0.246,0.347 -0.602,0.59 -1.071,0.722 z M 22.02,40.207 v 2.981 h 1.425 c 0.551,0 0.961,-0.126 1.239,-0.379 0.281,-0.254 0.421,-0.629 0.421,-1.118 0,-0.492 -0.14,-0.863 -0.421,-1.109 -0.278,-0.25 -0.688,-0.375 -1.239,-0.375 z"
             style="fill:#000000;fill-opacity:1;fill-rule:nonzero;stroke:none"
             id="path3759" />
          <path
             d="m 32.855,41.555 v 0.98 c -0.289,-0.152 -0.593,-0.265 -0.91,-0.34 -0.312,-0.074 -0.64,-0.113 -0.976,-0.113 -0.516,0 -0.903,0.082 -1.16,0.238 -0.254,0.157 -0.383,0.395 -0.383,0.707 0,0.243 0.094,0.43 0.277,0.571 0.184,0.132 0.551,0.265 1.106,0.386 l 0.355,0.078 c 0.734,0.161 1.258,0.383 1.563,0.672 0.312,0.286 0.468,0.684 0.468,1.196 0,0.586 -0.234,1.05 -0.699,1.39 -0.461,0.34 -1.094,0.512 -1.906,0.512 -0.336,0 -0.688,-0.031 -1.059,-0.102 -0.363,-0.062 -0.746,-0.16 -1.152,-0.292 v -1.067 c 0.383,0.199 0.762,0.348 1.133,0.449 0.371,0.098 0.738,0.145 1.101,0.145 0.489,0 0.864,-0.082 1.125,-0.246 0.262,-0.168 0.395,-0.407 0.395,-0.707 0,-0.282 -0.098,-0.5 -0.289,-0.649 -0.188,-0.148 -0.602,-0.293 -1.242,-0.433 l -0.36,-0.082 c -0.64,-0.137 -1.105,-0.344 -1.39,-0.621 -0.286,-0.282 -0.426,-0.665 -0.426,-1.153 0,-0.594 0.211,-1.051 0.629,-1.371 0.422,-0.324 1.015,-0.484 1.789,-0.484 0.383,0 0.742,0.027 1.078,0.082 0.34,0.058 0.652,0.14 0.933,0.254 z"
             style="fill:#000000;fill-opacity:1;fill-rule:nonzero;stroke:none"
             id="path3761" />
          <path
             d="m 35.867,39.582 v 1.789 H 38 v 0.805 h -2.133 v 3.418 c 0,0.515 0.071,0.844 0.207,0.988 0.145,0.148 0.43,0.223 0.86,0.223 H 38 v 0.863 h -1.066 c -0.797,0 -1.348,-0.148 -1.653,-0.441 -0.304,-0.301 -0.457,-0.844 -0.457,-1.633 v -3.418 h -0.758 v -0.805 h 0.758 v -1.789 z"
             style="fill:#000000;fill-opacity:1;fill-rule:nonzero;stroke:none"
             id="path3763" />
          <path
             d="m 39.254,45.184 v -3.813 h 1.035 v 3.774 c 0,0.593 0.113,1.043 0.348,1.343 0.234,0.297 0.582,0.446 1.047,0.446 0.558,0 1,-0.18 1.32,-0.536 0.328,-0.355 0.492,-0.843 0.492,-1.457 v -3.57 h 1.031 v 6.297 h -1.031 v -0.965 c -0.254,0.383 -0.547,0.668 -0.879,0.856 -0.332,0.183 -0.715,0.273 -1.152,0.273 -0.727,0 -1.274,-0.223 -1.649,-0.676 -0.375,-0.449 -0.562,-1.105 -0.562,-1.972 z"
             style="fill:#000000;fill-opacity:1;fill-rule:nonzero;stroke:none"
             id="path3765" />
          <path
             d="m 50.809,42.324 v -3.406 h 1.031 v 8.75 h -1.031 v -0.945 c -0.219,0.375 -0.497,0.656 -0.829,0.839 -0.332,0.18 -0.726,0.27 -1.191,0.27 -0.762,0 -1.383,-0.305 -1.863,-0.91 -0.477,-0.61 -0.715,-1.406 -0.715,-2.399 0,-0.988 0.238,-1.785 0.715,-2.394 0.48,-0.609 1.101,-0.91 1.863,-0.91 0.465,0 0.859,0.09 1.191,0.273 0.332,0.18 0.61,0.457 0.829,0.832 z m -3.528,2.199 c 0,0.762 0.153,1.36 0.465,1.797 0.316,0.43 0.746,0.645 1.293,0.645 0.551,0 0.981,-0.215 1.297,-0.645 0.312,-0.437 0.473,-1.035 0.473,-1.797 0,-0.757 -0.161,-1.355 -0.473,-1.785 -0.316,-0.437 -0.746,-0.656 -1.297,-0.656 -0.547,0 -0.977,0.219 -1.293,0.656 -0.312,0.43 -0.465,1.028 -0.465,1.785 z"
             style="fill:#000000;fill-opacity:1;fill-rule:nonzero;stroke:none"
             id="path3767" />
          <path
             d="m 53.973,41.371 h 1.035 v 6.297 h -1.035 z m 0,-2.453 h 1.035 v 1.309 h -1.035 z"
             style="fill:#000000;fill-opacity:1;fill-rule:nonzero;stroke:none"
             id="path3769" />
          <path
             d="m 59.617,42.094 c -0.558,0 -0.996,0.218 -1.316,0.652 -0.324,0.434 -0.485,1.024 -0.485,1.777 0,0.754 0.161,1.352 0.477,1.786 0.324,0.429 0.766,0.648 1.324,0.648 0.551,0 0.988,-0.219 1.309,-0.656 0.324,-0.434 0.484,-1.028 0.484,-1.778 0,-0.746 -0.16,-1.335 -0.484,-1.769 -0.321,-0.438 -0.758,-0.66 -1.309,-0.66 z m 0,-0.875 c 0.899,0 1.606,0.293 2.117,0.875 0.516,0.586 0.774,1.394 0.774,2.429 0,1.032 -0.258,1.844 -0.774,2.434 -0.511,0.582 -1.218,0.875 -2.117,0.875 -0.906,0 -1.613,-0.293 -2.129,-0.875 -0.508,-0.59 -0.765,-1.402 -0.765,-2.434 0,-1.035 0.257,-1.843 0.765,-2.429 0.516,-0.582 1.223,-0.875 2.129,-0.875 z"
             style="fill:#000000;fill-opacity:1;fill-rule:nonzero;stroke:none"
             id="path3771" />
          <path
             d="M 70.094,47.668 66.887,39.27 h 1.187 l 2.66,7.074 2.668,-7.074 h 1.18 l -3.199,8.398 z"
             style="fill:#000000;fill-opacity:1;fill-rule:nonzero;stroke:none"
             id="path3773" />
          <path
             d="m 76.109,46.715 h 1.856 v -6.41 l -2.02,0.406 v -1.035 l 2.008,-0.406 h 1.137 v 7.445 h 1.855 v 0.953 h -4.836 z"
             style="fill:#000000;fill-opacity:1;fill-rule:nonzero;stroke:none"
             id="path3775" />
        </g>
      </g>
    </g>
    <g
       id="g3779"
       clip-path="url(#clipPath4860)">
      <g
         id="g3781"
         clip-path="url(#clipPath3785)">
        <g
           id="g3787">
          <g
             id="g3789">
            <path
               d="m 110.035,0.48 h 93.121 c 2.125,0 3.84,1.715 3.84,3.84 v 21.121 c 0,2.129 -1.715,3.84 -3.84,3.84 h -93.121 c -2.129,0 -3.84,-1.711 -3.84,-3.84 V 4.32 c 0,-2.125 1.711,-3.84 3.84,-3.84 z"
               style="fill:#79a7ce;fill-opacity:1;fill-rule:nonzero;stroke:#000000;stroke-width:0.96;stroke-linecap:butt;stroke-linejoin:miter;stroke-miterlimit:1.45;stroke-dasharray:none;stroke-opacity:1"
               id="path3791" />
          </g>
        </g>
      </g>
    </g>
    <g
       id="g3795"
       clip-path="url(#clipPath4787)">
      <g
         id="g3797"
         clip-path="url(#clipPath3801)">
        <g
           id="g3803">
          <path
             d="m 129.793,4.699 v 3.156 h 1.43 c 0.531,0 0.937,-0.136 1.226,-0.41 0.289,-0.273 0.434,-0.664 0.434,-1.172 0,-0.5 -0.145,-0.89 -0.434,-1.164 -0.289,-0.273 -0.695,-0.41 -1.226,-0.41 z M 128.66,3.766 h 2.563 c 0.941,0 1.652,0.214 2.132,0.64 0.485,0.426 0.727,1.047 0.727,1.867 0,0.832 -0.242,1.457 -0.727,1.879 -0.48,0.426 -1.191,0.637 -2.132,0.637 h -1.43 v 3.375 h -1.133 z"
             style="fill:#000000;fill-opacity:1;fill-rule:nonzero;stroke:none"
             id="path3805" />
          <path
             d="m 137.906,8.996 c -0.836,0 -1.414,0.098 -1.738,0.289 -0.324,0.192 -0.484,0.516 -0.484,0.977 0,0.367 0.121,0.66 0.359,0.879 0.246,0.214 0.574,0.32 0.992,0.32 0.574,0 1.031,-0.203 1.379,-0.606 0.348,-0.41 0.52,-0.953 0.52,-1.628 V 8.996 Z m 2.063,-0.426 v 3.594 h -1.035 v -0.957 c -0.235,0.383 -0.528,0.668 -0.883,0.852 -0.352,0.179 -0.781,0.269 -1.293,0.269 -0.645,0 -1.156,-0.18 -1.539,-0.539 -0.379,-0.363 -0.571,-0.851 -0.571,-1.457 0,-0.711 0.239,-1.246 0.711,-1.605 0.477,-0.36 1.184,-0.539 2.125,-0.539 h 1.45 V 8.086 c 0,-0.477 -0.157,-0.844 -0.473,-1.102 -0.309,-0.261 -0.746,-0.394 -1.313,-0.394 -0.363,0 -0.71,0.043 -1.054,0.129 -0.34,0.086 -0.668,0.215 -0.985,0.39 V 6.152 c 0.379,-0.148 0.746,-0.257 1.102,-0.328 0.359,-0.074 0.707,-0.113 1.043,-0.113 0.91,0 1.59,0.238 2.043,0.711 0.449,0.473 0.672,1.187 0.672,2.148 z"
             style="fill:#000000;fill-opacity:1;fill-rule:nonzero;stroke:none"
             id="path3807" />
          <path
             d="m 146.637,6.105 v 0.969 c -0.293,-0.16 -0.586,-0.281 -0.883,-0.359 -0.293,-0.082 -0.59,-0.125 -0.891,-0.125 -0.672,0 -1.191,0.215 -1.562,0.64 -0.371,0.426 -0.559,1.02 -0.559,1.79 0,0.769 0.188,1.367 0.559,1.796 0.371,0.422 0.89,0.633 1.562,0.633 0.301,0 0.598,-0.039 0.891,-0.117 0.297,-0.082 0.59,-0.203 0.883,-0.367 v 0.957 c -0.289,0.137 -0.59,0.238 -0.903,0.305 -0.304,0.066 -0.632,0.101 -0.984,0.101 -0.945,0 -1.699,-0.297 -2.258,-0.894 -0.558,-0.598 -0.84,-1.403 -0.84,-2.414 0,-1.028 0.282,-1.836 0.844,-2.422 0.566,-0.59 1.34,-0.887 2.324,-0.887 0.317,0 0.629,0.035 0.934,0.101 0.301,0.067 0.598,0.165 0.883,0.293 z"
             style="fill:#000000;fill-opacity:1;fill-rule:nonzero;stroke:none"
             id="path3809" />
          <path
             d="m 148.398,3.41 h 1.04 v 5.172 l 3.085,-2.719 h 1.325 l -3.34,2.949 3.48,3.352 h -1.351 l -3.199,-3.078 v 3.078 h -1.04 z"
             style="fill:#000000;fill-opacity:1;fill-rule:nonzero;stroke:none"
             id="path3811" />
          <path
             d="m 157.77,8.996 c -0.836,0 -1.418,0.098 -1.739,0.289 -0.324,0.192 -0.484,0.516 -0.484,0.977 0,0.367 0.121,0.66 0.359,0.879 0.242,0.214 0.574,0.32 0.989,0.32 0.574,0 1.035,-0.203 1.378,-0.606 0.348,-0.41 0.524,-0.953 0.524,-1.628 V 8.996 Z m 2.062,-0.426 v 3.594 h -1.035 v -0.957 c -0.235,0.383 -0.531,0.668 -0.883,0.852 -0.352,0.179 -0.785,0.269 -1.293,0.269 -0.644,0 -1.16,-0.18 -1.543,-0.539 -0.379,-0.363 -0.566,-0.851 -0.566,-1.457 0,-0.711 0.234,-1.246 0.707,-1.605 0.476,-0.36 1.187,-0.539 2.129,-0.539 h 1.449 V 8.086 c 0,-0.477 -0.156,-0.844 -0.473,-1.102 -0.312,-0.261 -0.75,-0.394 -1.316,-0.394 -0.36,0 -0.711,0.043 -1.051,0.129 -0.34,0.086 -0.668,0.215 -0.984,0.39 V 6.152 c 0.379,-0.148 0.746,-0.257 1.101,-0.328 0.356,-0.074 0.703,-0.113 1.043,-0.113 0.91,0 1.59,0.238 2.039,0.711 0.449,0.473 0.676,1.187 0.676,2.148 z"
             style="fill:#000000;fill-opacity:1;fill-rule:nonzero;stroke:none"
             id="path3813" />
          <path
             d="m 166.109,8.941 c 0,-0.75 -0.156,-1.332 -0.464,-1.742 -0.309,-0.414 -0.743,-0.621 -1.301,-0.621 -0.555,0 -0.989,0.207 -1.301,0.621 -0.305,0.41 -0.461,0.992 -0.461,1.742 0,0.747 0.156,1.325 0.461,1.739 0.312,0.414 0.746,0.617 1.301,0.617 0.558,0 0.992,-0.203 1.301,-0.617 0.308,-0.414 0.464,-0.992 0.464,-1.739 z m 1.036,2.442 c 0,1.074 -0.239,1.871 -0.715,2.39 -0.477,0.524 -1.203,0.789 -2.188,0.789 -0.363,0 -0.707,-0.031 -1.031,-0.085 -0.32,-0.051 -0.633,-0.137 -0.938,-0.247 v -1.007 c 0.305,0.164 0.606,0.285 0.899,0.363 0.297,0.082 0.601,0.121 0.906,0.121 0.68,0 1.188,-0.18 1.527,-0.535 0.336,-0.352 0.504,-0.887 0.504,-1.606 v -0.511 c -0.214,0.371 -0.488,0.652 -0.82,0.836 -0.336,0.183 -0.734,0.273 -1.199,0.273 -0.774,0 -1.395,-0.293 -1.867,-0.883 -0.473,-0.59 -0.707,-1.367 -0.707,-2.34 0,-0.976 0.234,-1.757 0.707,-2.343 0.472,-0.59 1.093,-0.887 1.867,-0.887 0.465,0 0.863,0.094 1.199,0.277 0.332,0.184 0.606,0.461 0.82,0.832 V 5.863 h 1.036 z"
             style="fill:#000000;fill-opacity:1;fill-rule:nonzero;stroke:none"
             id="path3815" />
          <path
             d="m 174.664,8.754 v 0.508 h -4.758 c 0.047,0.711 0.258,1.258 0.641,1.633 0.387,0.371 0.922,0.554 1.609,0.554 0.399,0 0.782,-0.047 1.153,-0.144 0.375,-0.098 0.746,-0.246 1.113,-0.442 v 0.981 c -0.371,0.156 -0.75,0.277 -1.141,0.359 -0.39,0.082 -0.785,0.125 -1.187,0.125 -1.004,0 -1.801,-0.293 -2.391,-0.879 -0.586,-0.586 -0.875,-1.375 -0.875,-2.371 0,-1.031 0.277,-1.851 0.832,-2.453 0.559,-0.609 1.309,-0.914 2.254,-0.914 0.848,0 1.52,0.277 2.008,0.824 0.496,0.543 0.742,1.281 0.742,2.219 z m -1.035,-0.301 c -0.008,-0.566 -0.164,-1.019 -0.477,-1.355 -0.308,-0.34 -0.714,-0.508 -1.226,-0.508 -0.578,0 -1.039,0.164 -1.391,0.488 -0.344,0.328 -0.543,0.785 -0.594,1.379 z"
             style="fill:#000000;fill-opacity:1;fill-rule:nonzero;stroke:none"
             id="path3817" />
          <path
             d="m 180.379,6.051 v 0.976 c -0.289,-0.148 -0.594,-0.261 -0.91,-0.336 -0.317,-0.074 -0.641,-0.113 -0.977,-0.113 -0.515,0 -0.902,0.078 -1.16,0.238 -0.254,0.157 -0.383,0.391 -0.383,0.707 0,0.243 0.094,0.43 0.278,0.571 0.183,0.133 0.55,0.261 1.105,0.386 l 0.356,0.079 c 0.734,0.156 1.257,0.382 1.562,0.668 0.312,0.285 0.469,0.687 0.469,1.199 0,0.586 -0.235,1.047 -0.699,1.39 -0.461,0.34 -1.098,0.512 -1.907,0.512 -0.336,0 -0.691,-0.035 -1.058,-0.101 -0.364,-0.063 -0.746,-0.161 -1.153,-0.293 v -1.071 c 0.383,0.199 0.762,0.352 1.133,0.453 0.371,0.098 0.738,0.145 1.102,0.145 0.488,0 0.863,-0.082 1.125,-0.246 0.261,-0.168 0.394,-0.406 0.394,-0.711 0,-0.281 -0.097,-0.496 -0.289,-0.645 -0.187,-0.152 -0.601,-0.297 -1.242,-0.433 L 177.766,9.34 C 177.125,9.207 176.66,9 176.375,8.723 176.09,8.441 175.949,8.055 175.949,7.57 c 0,-0.593 0.207,-1.05 0.629,-1.375 0.418,-0.32 1.016,-0.484 1.789,-0.484 0.383,0 0.742,0.031 1.078,0.086 0.34,0.055 0.649,0.141 0.934,0.254 z"
             style="fill:#000000;fill-opacity:1;fill-rule:nonzero;stroke:none"
             id="path3819" />
        </g>
      </g>
    </g>
  </g>
</svg>
