<?xml version="1.0" encoding="UTF-8" standalone="no"?>
<!-- Created with Inkscape (http://www.inkscape.org/) -->

<svg
   version="1.1"
   id="svg2"
   width="580.73438"
   height="412.03238"
   viewBox="0 0 580.73438 412.03238"
   sodipodi:docname="logoAuBi-2019.svg"
   inkscape:version="1.2.2 (1:1.2.2+202212051552+b0a8486541)"
   xmlns:inkscape="http://www.inkscape.org/namespaces/inkscape"
   xmlns:sodipodi="http://sodipodi.sourceforge.net/DTD/sodipodi-0.dtd"
   xmlns="http://www.w3.org/2000/svg"
   xmlns:svg="http://www.w3.org/2000/svg">
  <defs
     id="defs6" />
  <sodipodi:namedview
     id="namedview4"
     pagecolor="#ffffff"
     bordercolor="#000000"
     borderopacity="0.25"
     inkscape:showpageshadow="2"
     inkscape:pageopacity="0.0"
     inkscape:pagecheckerboard="0"
     inkscape:deskcolor="#d1d1d1"
     showgrid="false"
     inkscape:zoom="2.1236195"
     inkscape:cx="266.99698"
     inkscape:cy="206.48708"
     inkscape:window-width="1846"
     inkscape:window-height="1016"
     inkscape:window-x="74"
     inkscape:window-y="1107"
     inkscape:window-maximized="1"
     inkscape:current-layer="g10">
    <inkscape:page
       x="0"
       y="0"
       id="page8"
       width="580.73438"
       height="412.03238"
       inkscape:export-filename="aubi.png"
       inkscape:export-xdpi="96"
       inkscape:export-ydpi="96" />
  </sodipodi:namedview>
  <g
     id="g10"
     inkscape:groupmode="layer"
     inkscape:label="Page 1"
     transform="matrix(1.3333333,0,0,1.3333333,0,1.0967476e-5)">
    <g
       id="g12">
      <path
         d="m 73.883,19.594 v 213.613 l -5.844,32.586 H 84.574 L 77.391,232.41 V 19.594"
         style="fill:#97bd0c;fill-opacity:1;fill-rule:nonzero;stroke:none"
         id="path14" />
      <path
         d="m 19.676,101.223 v 68.187 c 0,0 -0.797,7.582 9.179,12.77 7.266,3.781 26.985,15.125 35.934,20.132 v 30.801 h 3.25 V 204.32 c 0,0 1.649,-4.222 -4.348,-7.375 -2.988,-1.683 -33.238,-18.757 -33.238,-18.757 0,0 -7.984,-0.797 -5.988,-14.766 l -0.801,-62.199 z"
         style="fill:#97bd0c;fill-opacity:1;fill-rule:nonzero;stroke:none"
         id="path16" />
      <path
         d="m 106.184,81.906 v 30.434 c 0,0 -2.586,3.265 -9.372,7.215 -6.781,3.957 -12.238,7.816 -12.238,7.816 0,0 -4.789,2.391 -4.523,12.77 0.261,10.379 -0.012,93.773 -0.012,93.773 l 13.746,31.879 19.641,0.176 -30.184,-32.586 -0.265,-92.977 c 0,0 0,-9.308 5.054,-12.769 6.68,-4.571 19.735,-10.91 21.563,-15.699 0,0 0.09,-9.047 -0.156,-16.793 -0.114,-3.747 0.476,2.191 -0.915,-5.293 z"
         style="fill:#97bd0c;fill-opacity:1;fill-rule:nonzero;stroke:none"
         id="path18" />
      <path
         d="m 77.391,188.301 65.187,-37.281 c 0,0 3.785,-1.524 3.457,-7.954 -0.328,-6.425 0.024,-7.777 0.024,-7.777 h 5.031 v 12.039 c 0,0 0,3.692 -9.574,9.313 l -65.457,37.515"
         style="fill:#97bd0c;fill-opacity:1;fill-rule:nonzero;stroke:none"
         id="path20" />
      <path
         d="m 264.738,132.227 c 0,0 -48.496,0.605 -55.273,6.503 -6.777,5.903 0.762,11.176 3.996,12.012 0,0 10.242,3.348 31.441,2.461 21.2,-0.883 44.875,-2.371 59.121,-4.246 0,0 5.989,7.309 26.481,21.586 20.492,14.273 88.363,59.531 102.148,67.73 l -253.832,-0.777 256.731,2.68 -78.41,-55.098 c 0,0 -38.844,-29.738 -49.649,-43.187 0,0 -34.469,5.398 -49.437,6.144 -14.961,0.75 -25.895,1 -31.817,0.668 -5.926,-0.332 -13.5,-1.738 -14.59,-4.008 -1.089,-2.269 -1.921,-4.652 6.524,-6.925 8.445,-2.274 32.601,-5.524 46.566,-5.543"
         style="fill:#97bd0c;fill-opacity:1;fill-rule:nonzero;stroke:none"
         id="path22" />
      <path
         d="m 55.715,74.953 v 22.688 c 0,0 -1.207,4.183 3.582,7.379 4.789,3.191 15.531,10.316 15.531,10.316"
         style="fill:none;stroke:#97bd0c;stroke-width:1;stroke-linecap:butt;stroke-linejoin:miter;stroke-miterlimit:4;stroke-dasharray:none;stroke-opacity:1"
         id="path24" />
      <path
         d="m 71.746,233.117 -0.019,-10.961 c 0,0 -0.317,-23.594 0,-29.113 0.32,-5.523 -3.399,-10.109 -3.399,-10.109 0,0 -7.18,-3.465 -12.238,-6.125 -5.055,-2.661 -3.492,-9.579 -3.492,-9.579 l -0.664,-26.078"
         style="fill:none;stroke:#99bf19;stroke-width:1;stroke-linecap:butt;stroke-linejoin:miter;stroke-miterlimit:4;stroke-dasharray:none;stroke-opacity:1"
         id="path26" />
      <path
         d="M 72.195,233.117 H 71.293 L 46.977,265.793 H 61.766 Z"
         style="fill:#99bf19;fill-opacity:1;fill-rule:nonzero;stroke:none"
         id="path28" />
      <path
         d="m 68.328,134.172 c 0,8.687 -7.043,15.73 -15.73,15.73 -8.684,0 -15.727,-7.043 -15.727,-15.73 0,-8.684 7.043,-15.727 15.727,-15.727 8.687,0 15.73,7.043 15.73,15.727"
         style="fill:#00612e;fill-opacity:1;fill-rule:nonzero;stroke:none"
         id="path30" />
      <path
         d="m 95.242,19.766 c 0,10.918 -8.847,19.765 -19.762,19.765 -10.918,0 -19.765,-8.847 -19.765,-19.765 C 55.715,8.852 64.562,0 75.48,0 86.395,0 95.242,8.852 95.242,19.766"
         style="fill:#7f3587;fill-opacity:1;fill-rule:nonzero;stroke:none"
         id="path32" />
      <path
         d="m 42.965,101.223 c 0,11.867 -9.617,21.484 -21.481,21.484 C 9.617,122.707 0,113.09 0,101.223 0,89.359 9.617,79.738 21.484,79.738 c 11.864,0 21.481,9.621 21.481,21.485"
         style="fill:#237db0;fill-opacity:1;fill-rule:nonzero;stroke:none"
         id="path34" />
      <path
         d="m 169.91,115.336 c 0,11.863 -9.613,21.484 -21.476,21.484 -11.864,0 -21.485,-9.621 -21.485,-21.484 0,-11.863 9.621,-21.484 21.485,-21.484 11.863,0 21.476,9.621 21.476,21.484"
         style="fill:#006b7f;fill-opacity:1;fill-rule:nonzero;stroke:none"
         id="path36" />
      <path
         d="m 69.051,63.879 c 0,7.363 -5.973,13.332 -13.336,13.332 -7.367,0 -13.336,-5.969 -13.336,-13.332 0,-7.367 5.969,-13.34 13.336,-13.34 7.363,0 13.336,5.973 13.336,13.34"
         style="fill:#008a2e;fill-opacity:1;fill-rule:nonzero;stroke:none"
         id="path38" />
      <path
         d="m 121.91,81.906 c 0,8.692 -7.043,15.735 -15.726,15.735 -8.688,0 -15.731,-7.043 -15.731,-15.735 0,-8.683 7.043,-15.73 15.731,-15.73 8.683,0 15.726,7.047 15.726,15.73"
         style="fill:#fae80f;fill-opacity:1;fill-rule:nonzero;stroke:none"
         id="path40" />
      <path
         d="M 41.004,265.793 H 21.48 l 43.309,-32.68 h 3.25 z"
         style="fill:#97bd0c;fill-opacity:1;fill-rule:nonzero;stroke:none"
         id="path42" />
      <path
         d="m 33.469,303.18 h -2.188 l -0.875,-5.516 h -4.922 l -0.875,5.516 h -2.125 v -0.063 l 4.422,-24.797 h 2.172 z m -3.344,-7.469 -2.172,-13.438 -2.187,13.438 z"
         style="fill:#006b7f;fill-opacity:1;fill-rule:nonzero;stroke:none"
         id="path44" />
      <path
         d="m 45.988,303.18 h -2.062 v -0.422 c -0.856,0.117 -1.699,0.226 -2.531,0.328 -1.012,0.125 -1.852,0.187 -2.516,0.187 -1.137,0 -1.703,-0.566 -1.703,-1.703 v -13.812 h 2.062 v 13.531 l 4.688,-0.125 v -13.406 h 2.062 z"
         style="fill:#006b7f;fill-opacity:1;fill-rule:nonzero;stroke:none"
         id="path46" />
      <path
         d="m 59.09,287.758 -3.813,15.453 h -1.922 l -3.828,-15.453 h 2.172 l 2.625,12.14 2.656,-12.14 z"
         style="fill:#006b7f;fill-opacity:1;fill-rule:nonzero;stroke:none"
         id="path48" />
      <path
         d="m 71.262,301.383 c 0,1.199 -0.59,1.797 -1.766,1.797 h -5.078 c -1.18,0 -1.766,-0.598 -1.766,-1.797 v -11.828 c 0,-1.196 0.586,-1.797 1.766,-1.797 h 5.078 c 1.176,0 1.766,0.601 1.766,1.797 v 5.547 l -0.703,0.734 h -5.875 v 5.578 h 4.531 v -2.812 h 2.047 z m -2.047,-7.219 v -4.641 h -4.531 v 4.641 z"
         style="fill:#006b7f;fill-opacity:1;fill-rule:nonzero;stroke:none"
         id="path50" />
      <path
         d="m 83.793,292.836 h -2.078 v -3.188 l -3.891,0.125 V 303.18 H 75.73 v -15.422 h 2.094 v 0.437 c 0.696,-0.113 1.399,-0.226 2.11,-0.343 0.843,-0.125 1.546,-0.188 2.109,-0.188 1.164,0 1.75,0.578 1.75,1.734 z"
         style="fill:#006b7f;fill-opacity:1;fill-rule:nonzero;stroke:none"
         id="path52" />
      <path
         d="m 96.199,307.242 c 0,1.188 -0.594,1.781 -1.781,1.781 h -5.016 c -1.211,0 -1.812,-0.757 -1.812,-2.265 0,-0.18 0.004,-0.446 0.015,-0.797 0.02,-0.356 0.032,-0.609 0.032,-0.766 h 2.078 v 2.047 h 4.406 v -4.062 h -3.484 c -0.938,0 -1.719,-0.313 -2.344,-0.938 -0.625,-0.633 -0.938,-1.426 -0.938,-2.375 v -9.015 c 0,-0.907 0.274,-1.661 0.829,-2.266 0.55,-0.613 1.273,-0.922 2.171,-0.922 0.239,0 1.493,0.18 3.766,0.531 v -0.437 h 2.078 z m -2.078,-5.922 v -11.64 c -1.68,-0.102 -2.652,-0.157 -2.922,-0.157 -1.168,0 -1.75,0.59 -1.75,1.766 v 8.266 c 0,1.179 0.582,1.765 1.75,1.765 z"
         style="fill:#006b7f;fill-opacity:1;fill-rule:nonzero;stroke:none"
         id="path54" />
      <path
         d="m 109.5,303.18 h -2.094 v -13.532 l -4.656,0.125 v 13.407 h -2.094 v -15.422 h 2.094 v 0.437 c 0.832,-0.113 1.664,-0.226 2.5,-0.343 1.008,-0.125 1.844,-0.188 2.5,-0.188 1.164,0 1.75,0.578 1.75,1.734 z"
         style="fill:#006b7f;fill-opacity:1;fill-rule:nonzero;stroke:none"
         id="path56" />
      <path
         d="m 122.508,301.383 c 0,1.199 -0.59,1.797 -1.766,1.797 h -5.078 c -1.18,0 -1.766,-0.598 -1.766,-1.797 v -11.828 c 0,-1.196 0.586,-1.797 1.766,-1.797 h 5.078 c 1.176,0 1.766,0.601 1.766,1.797 v 5.547 l -0.703,0.734 h -5.875 v 5.578 h 4.531 v -2.812 h 2.047 z m -2.047,-7.219 v -4.641 h -4.531 v 4.641 z"
         style="fill:#006b7f;fill-opacity:1;fill-rule:nonzero;stroke:none"
         id="path58" />
      <path
         d="m 144.5,301.414 c 0,0.524 -0.168,0.949 -0.5,1.281 -0.324,0.325 -0.746,0.485 -1.266,0.485 h -8.172 v -24.797 h 8.11 c 0.519,0 0.941,0.168 1.266,0.5 0.332,0.324 0.5,0.742 0.5,1.25 v 7.375 c 0,0.656 -0.297,1.203 -0.891,1.64 -0.586,0.356 -1.168,0.704 -1.75,1.047 l 1.875,1.203 c 0.551,0.344 0.828,0.875 0.828,1.594 z m -2.281,-13.625 v -7.453 h -5.453 v 8.953 h 3.25 z m 0.062,13.438 v -8.563 l -2.234,-1.469 h -3.281 v 10.032 z"
         style="fill:#006b7f;fill-opacity:1;fill-rule:nonzero;stroke:none"
         id="path60" />
      <path
         d="m 151.312,284.383 h -2.14 v -2.656 h 2.14 z m -0.031,18.797 h -2.078 v -15.422 h 2.078 z"
         style="fill:#006b7f;fill-opacity:1;fill-rule:nonzero;stroke:none"
         id="path62" />
      <path
         d="m 164.672,301.383 c 0,1.199 -0.594,1.797 -1.781,1.797 h -5.297 c -1.18,0 -1.766,-0.598 -1.766,-1.797 v -11.828 c 0,-1.196 0.586,-1.797 1.766,-1.797 h 5.297 c 1.187,0 1.781,0.601 1.781,1.797 z m -2.094,-0.063 v -11.703 h -4.656 v 11.703 z"
         style="fill:#006b7f;fill-opacity:1;fill-rule:nonzero;stroke:none"
         id="path64" />
      <path
         d="m 171.34,284.383 h -2.141 v -2.656 h 2.141 z m -0.031,18.797 h -2.079 v -15.422 h 2.079 z"
         style="fill:#006b7f;fill-opacity:1;fill-rule:nonzero;stroke:none"
         id="path66" />
      <path
         d="m 184.699,303.18 h -2.094 v -13.532 l -4.656,0.125 v 13.407 h -2.094 v -15.422 h 2.094 v 0.437 c 0.832,-0.113 1.664,-0.226 2.5,-0.343 1.008,-0.125 1.844,-0.188 2.5,-0.188 1.164,0 1.75,0.578 1.75,1.734 z"
         style="fill:#006b7f;fill-opacity:1;fill-rule:nonzero;stroke:none"
         id="path68" />
      <path
         d="m 194.926,280.227 h -2.985 v 7.531 h 2.625 v 1.859 h -2.625 v 13.563 h -2.078 v -13.563 h -1.781 v -1.859 h 1.781 v -7.594 c 0,-1.187 0.594,-1.781 1.782,-1.781 h 3.281 z"
         style="fill:#006b7f;fill-opacity:1;fill-rule:nonzero;stroke:none"
         id="path70" />
      <path
         d="m 206.637,301.383 c 0,1.199 -0.594,1.797 -1.782,1.797 h -5.296 c -1.18,0 -1.766,-0.598 -1.766,-1.797 v -11.828 c 0,-1.196 0.586,-1.797 1.766,-1.797 h 5.296 c 1.188,0 1.782,0.601 1.782,1.797 z m -2.094,-0.063 v -11.703 h -4.656 v 11.703 z"
         style="fill:#006b7f;fill-opacity:1;fill-rule:nonzero;stroke:none"
         id="path72" />
      <path
         d="m 219.129,292.836 h -2.078 v -3.188 l -3.891,0.125 v 13.407 h -2.094 v -15.422 h 2.094 v 0.437 c 0.695,-0.113 1.399,-0.226 2.11,-0.343 0.843,-0.125 1.546,-0.188 2.109,-0.188 1.164,0 1.75,0.578 1.75,1.734 z"
         style="fill:#006b7f;fill-opacity:1;fill-rule:nonzero;stroke:none"
         id="path74" />
      <path
         d="m 238.27,303.18 h -2.094 v -13.532 l -4.61,0.125 v 13.407 h -2.078 v -13.532 l -4.609,0.125 v 13.407 h -2.094 v -15.422 h 2.094 v 0.437 c 0.832,-0.113 1.66,-0.226 2.484,-0.343 1,-0.125 1.828,-0.188 2.485,-0.188 0.644,0 1.117,0.199 1.422,0.594 0.882,-0.113 1.765,-0.238 2.64,-0.375 1.156,-0.145 2.031,-0.219 2.625,-0.219 1.156,0 1.735,0.578 1.735,1.734 z"
         style="fill:#006b7f;fill-opacity:1;fill-rule:nonzero;stroke:none"
         id="path76" />
      <path
         d="m 251.383,303.18 h -2.078 v -0.422 c -0.836,0.117 -1.668,0.226 -2.5,0.328 -1.032,0.125 -1.86,0.187 -2.485,0.187 -1.156,0 -1.734,-0.566 -1.734,-1.703 v -5.625 c 0,-1.187 0.598,-1.781 1.797,-1.781 h 4.969 v -4.641 h -4.547 v 2.625 h -2.032 v -2.593 c 0,-1.196 0.586,-1.797 1.766,-1.797 h 5.078 c 1.176,0 1.766,0.601 1.766,1.797 z m -2.031,-1.922 v -5.453 h -4.719 v 5.547 z"
         style="fill:#006b7f;fill-opacity:1;fill-rule:nonzero;stroke:none"
         id="path78" />
      <path
         d="m 261.355,303.18 h -2.984 c -1.187,0 -1.781,-0.598 -1.781,-1.797 v -11.766 h -1.844 v -1.859 h 1.844 v -4.797 h 2.078 v 4.797 h 2.687 v 1.859 h -2.687 v 11.703 h 2.687 z"
         style="fill:#006b7f;fill-opacity:1;fill-rule:nonzero;stroke:none"
         id="path80" />
      <path
         d="m 267.273,284.383 h -2.14 v -2.656 h 2.14 z m -0.031,18.797 h -2.078 v -15.422 h 2.078 z"
         style="fill:#006b7f;fill-opacity:1;fill-rule:nonzero;stroke:none"
         id="path82" />
      <path
         d="m 280.539,309.023 h -2.078 v -5.843 h -3.484 c -0.938,0 -1.719,-0.313 -2.344,-0.938 -0.625,-0.633 -0.938,-1.426 -0.938,-2.375 v -9.015 c 0,-0.907 0.274,-1.661 0.828,-2.266 0.551,-0.613 1.274,-0.922 2.172,-0.922 0.239,0 1.493,0.18 3.766,0.531 v -0.437 h 2.078 z m -2.078,-7.703 v -11.64 c -1.68,-0.102 -2.652,-0.157 -2.922,-0.157 -1.168,0 -1.75,0.59 -1.75,1.766 v 8.266 c 0,1.179 0.582,1.765 1.75,1.765 z"
         style="fill:#006b7f;fill-opacity:1;fill-rule:nonzero;stroke:none"
         id="path84" />
      <path
         d="m 293.812,303.18 h -2.062 v -0.422 c -0.855,0.117 -1.699,0.226 -2.531,0.328 -1.012,0.125 -1.852,0.187 -2.516,0.187 -1.137,0 -1.703,-0.566 -1.703,-1.703 v -13.812 h 2.062 v 13.531 l 4.688,-0.125 v -13.406 h 2.062 z"
         style="fill:#006b7f;fill-opacity:1;fill-rule:nonzero;stroke:none"
         id="path86" />
      <path
         d="m 306.852,301.383 c 0,1.199 -0.59,1.797 -1.766,1.797 h -5.078 c -1.18,0 -1.766,-0.598 -1.766,-1.797 v -11.828 c 0,-1.196 0.586,-1.797 1.766,-1.797 h 5.078 c 1.176,0 1.766,0.601 1.766,1.797 v 5.547 l -0.704,0.734 h -5.875 v 5.578 h 4.532 v -2.812 h 2.047 z m -2.047,-7.219 v -4.641 h -4.532 v 4.641 z"
         style="fill:#006b7f;fill-opacity:1;fill-rule:nonzero;stroke:none"
         id="path88" />
      <path
         d="m 166.035,240.031 v 13.625 h -4.906 v 12.313 h -17.078 v -32.875 c 0,-6.364 1.926,-11.305 5.781,-14.828 3.852,-3.52 9.27,-5.282 16.25,-5.282 6.727,0 11.703,1.602 14.922,4.797 3.226,3.188 4.844,8.117 4.844,14.781 v 33.407 H 168.77 v -32.375 c 0,-2.02 -0.266,-3.422 -0.797,-4.203 -0.532,-0.789 -1.485,-1.188 -2.86,-1.188 -2.656,0 -3.984,1.797 -3.984,5.391 v 6.437 z"
         style="fill:#006b7f;fill-opacity:1;fill-rule:nonzero;stroke:none"
         id="path90" />
      <path
         d="m 195.023,228.734 h 15.719 v 21.328 c 0,2.149 0.992,3.219 2.985,3.219 1.968,0 2.953,-1.07 2.953,-3.219 v -21.328 h 15.718 v 21.063 c 0,4.898 -1.808,9.031 -5.421,12.406 -3.618,3.367 -8.043,5.047 -13.282,5.047 -5.968,0 -10.777,-1.953 -14.422,-5.859 -2.835,-3.063 -4.25,-7.305 -4.25,-12.735 z"
         style="fill:#006b7f;fill-opacity:1;fill-rule:nonzero;stroke:none"
         id="path92" />
      <path
         d="m 242.707,214.266 h 20.844 c 12.363,0 18.547,4.386 18.547,13.156 0,4.336 -2.121,7.945 -6.36,10.828 6.133,2.398 9.203,6.672 9.203,12.828 0,4.731 -1.808,8.496 -5.421,11.297 -1.762,1.336 -3.653,2.266 -5.672,2.797 -2.024,0.531 -4.743,0.797 -8.157,0.797 h -3.234 v -13.297 h 2.906 c 1.707,0 2.91,-0.192 3.61,-0.578 0.695,-0.395 1.047,-1.082 1.047,-2.063 0,-1.664 -1.43,-2.5 -4.282,-2.5 h -3.281 v -13.797 c 3.133,0 4.703,-0.968 4.703,-2.906 0,-1.789 -1.414,-2.687 -4.234,-2.687 h -3.156 v 37.828 h -17.063 z"
         style="fill:#006b7f;fill-opacity:1;fill-rule:nonzero;stroke:none"
         id="path94" />
      <path
         d="m 308.555,228.203 v 37.766 h -15.719 v -37.766 z m -7.813,-16.844 c 2.133,0 3.977,0.68 5.531,2.032 1.547,1.343 2.329,2.937 2.329,4.781 0,1.969 -0.735,3.59 -2.204,4.859 -1.468,1.262 -3.359,1.891 -5.656,1.891 -2.304,0 -4.187,-0.629 -5.656,-1.891 -1.469,-1.269 -2.203,-2.89 -2.203,-4.859 0,-1.844 0.773,-3.438 2.328,-4.781 1.562,-1.352 3.406,-2.032 5.531,-2.032 z"
         style="fill:#006b7f;fill-opacity:1;fill-rule:nonzero;stroke:none"
         id="path96" />
    </g>
  </g>
</svg>
