<?xml version="1.0" encoding="UTF-8" standalone="no"?>
<!-- Created with Inkscape (http://www.inkscape.org/) -->

<svg
   version="1.1"
   id="svg2"
   width="277.01465"
   height="154.87866"
   viewBox="0 0 277.01465 154.87866"
   sodipodi:docname="conda_env_2.pdf"
   xmlns:inkscape="http://www.inkscape.org/namespaces/inkscape"
   xmlns:sodipodi="http://sodipodi.sourceforge.net/DTD/sodipodi-0.dtd"
   xmlns="http://www.w3.org/2000/svg"
   xmlns:svg="http://www.w3.org/2000/svg">
  <defs
     id="defs6">
    <clipPath
       clipPathUnits="userSpaceOnUse"
       id="clipPath30">
      <path
         d="M 0,0 H 208 V 117 H 0 Z"
         id="path28" />
    </clipPath>
    <clipPath
       clipPathUnits="userSpaceOnUse"
       id="clipPath46">
      <path
         d="M 0,0 H 208 V 117 H 0 Z"
         id="path44" />
    </clipPath>
    <clipPath
       clipPathUnits="userSpaceOnUse"
       id="clipPath74">
      <path
         d="M 0,0 H 208 V 117 H 0 Z"
         id="path72" />
    </clipPath>
    <clipPath
       clipPathUnits="userSpaceOnUse"
       id="clipPath90">
      <path
         d="M 0,0 H 208 V 117 H 0 Z"
         id="path88" />
    </clipPath>
    <clipPath
       clipPathUnits="userSpaceOnUse"
       id="clipPath118">
      <path
         d="M 0,0 H 208 V 117 H 0 Z"
         id="path116" />
    </clipPath>
    <clipPath
       clipPathUnits="userSpaceOnUse"
       id="clipPath134">
      <path
         d="M 0,0 H 208 V 117 H 0 Z"
         id="path132" />
    </clipPath>
    <clipPath
       clipPathUnits="userSpaceOnUse"
       id="clipPath164">
      <path
         d="M 0,0 H 208 V 117 H 0 Z"
         id="path162" />
    </clipPath>
    <clipPath
       clipPathUnits="userSpaceOnUse"
       id="clipPath180">
      <path
         d="M 0,0 H 208 V 117 H 0 Z"
         id="path178" />
    </clipPath>
    <clipPath
       clipPathUnits="userSpaceOnUse"
       id="clipPath572">
      <g
         id="g578">
        <g
           id="g576">
          <path
             d="M 0,0 H 207 V 116 H 0 Z"
             id="path574" />
        </g>
      </g>
    </clipPath>
    <clipPath
       clipPathUnits="userSpaceOnUse"
       id="clipPath591">
      <g
         id="g597">
        <g
           id="g595">
          <path
             d="M 0,0 H 207 V 116 H 0 Z"
             id="path593" />
        </g>
      </g>
    </clipPath>
    <clipPath
       clipPathUnits="userSpaceOnUse"
       id="clipPath617">
      <g
         id="g641">
        <g
           id="g639"
           clip-path="url(#clipPath180)">
          <g
             id="g637">
            <path
               d="m 76.031,43.73 c 0.242,0.082 0.481,0.258 0.707,0.528 0.235,0.273 0.465,0.644 0.7,1.117 l 1.152,2.293 h -1.223 l -1.074,-2.152 c -0.277,-0.563 -0.547,-0.938 -0.809,-1.121 -0.257,-0.184 -0.613,-0.278 -1.062,-0.278 h -1.238 v 3.551 H 72.047 V 39.27 h 2.566 c 0.961,0 1.676,0.203 2.149,0.601 0.472,0.402 0.707,1.008 0.707,1.817 0,0.531 -0.121,0.968 -0.371,1.316 -0.243,0.351 -0.598,0.594 -1.067,0.726 z m -2.847,-3.527 v 2.981 h 1.429 c 0.547,0 0.961,-0.125 1.239,-0.375 0.281,-0.254 0.421,-0.629 0.421,-1.121 0,-0.489 -0.14,-0.86 -0.421,-1.106 -0.278,-0.254 -0.692,-0.379 -1.239,-0.379 z"
               style="fill:#000000;fill-opacity:1;fill-rule:nonzero;stroke:none"
               id="path619" />
            <path
               d="m 84.668,46.723 v 3.343 h -1.039 v -8.699 h 1.039 v 0.957 c 0.219,-0.375 0.492,-0.652 0.824,-0.832 0.332,-0.183 0.731,-0.277 1.192,-0.277 0.765,0 1.386,0.305 1.863,0.914 0.48,0.605 0.719,1.406 0.719,2.394 0,0.993 -0.239,1.789 -0.719,2.399 -0.477,0.605 -1.098,0.91 -1.863,0.91 -0.461,0 -0.86,-0.09 -1.192,-0.27 -0.332,-0.183 -0.605,-0.464 -0.824,-0.839 z m 3.523,-2.2 c 0,-0.761 -0.156,-1.355 -0.472,-1.789 -0.313,-0.433 -0.742,-0.652 -1.289,-0.652 -0.547,0 -0.977,0.219 -1.293,0.652 -0.313,0.434 -0.469,1.028 -0.469,1.789 0,0.762 0.156,1.36 0.469,1.793 0.316,0.434 0.746,0.649 1.293,0.649 0.547,0 0.976,-0.215 1.289,-0.649 0.316,-0.433 0.472,-1.031 0.472,-1.793 z"
               style="fill:#000000;fill-opacity:1;fill-rule:nonzero;stroke:none"
               id="path621" />
            <path
               d="m 93.844,44.5 c -0.836,0 -1.414,0.098 -1.739,0.289 -0.32,0.191 -0.484,0.516 -0.484,0.977 0,0.367 0.121,0.66 0.359,0.879 0.247,0.214 0.575,0.32 0.993,0.32 0.574,0 1.031,-0.203 1.379,-0.606 0.347,-0.41 0.523,-0.953 0.523,-1.629 V 44.5 Z m 2.066,-0.426 v 3.594 h -1.035 v -0.957 c -0.238,0.383 -0.531,0.668 -0.883,0.851 -0.355,0.18 -0.785,0.27 -1.297,0.27 -0.644,0 -1.156,-0.18 -1.539,-0.539 -0.379,-0.367 -0.57,-0.852 -0.57,-1.457 0,-0.711 0.238,-1.246 0.711,-1.606 0.476,-0.359 1.183,-0.539 2.125,-0.539 h 1.453 V 43.59 c 0,-0.477 -0.16,-0.844 -0.473,-1.102 -0.312,-0.261 -0.75,-0.394 -1.316,-0.394 -0.359,0 -0.711,0.043 -1.055,0.129 -0.34,0.086 -0.668,0.215 -0.984,0.39 v -0.957 c 0.379,-0.148 0.746,-0.258 1.105,-0.328 0.356,-0.074 0.703,-0.113 1.039,-0.113 0.911,0 1.594,0.238 2.043,0.711 0.45,0.472 0.676,1.187 0.676,2.148 z"
               style="fill:#000000;fill-opacity:1;fill-rule:nonzero;stroke:none"
               id="path623" />
            <path
               d="m 102.574,41.609 v 0.969 c -0.293,-0.16 -0.586,-0.281 -0.883,-0.359 -0.293,-0.082 -0.589,-0.125 -0.89,-0.125 -0.668,0 -1.192,0.215 -1.563,0.64 -0.371,0.426 -0.554,1.02 -0.554,1.789 0,0.77 0.183,1.368 0.554,1.793 0.371,0.426 0.895,0.637 1.563,0.637 0.301,0 0.597,-0.039 0.89,-0.117 0.297,-0.082 0.59,-0.203 0.883,-0.367 v 0.957 c -0.289,0.136 -0.59,0.238 -0.898,0.304 -0.309,0.067 -0.637,0.102 -0.985,0.102 -0.949,0 -1.703,-0.297 -2.261,-0.894 -0.559,-0.598 -0.84,-1.403 -0.84,-2.415 0,-1.027 0.281,-1.835 0.844,-2.425 0.566,-0.586 1.339,-0.883 2.324,-0.883 0.316,0 0.629,0.035 0.933,0.101 0.305,0.067 0.598,0.164 0.883,0.293 z"
               style="fill:#000000;fill-opacity:1;fill-rule:nonzero;stroke:none"
               id="path625" />
            <path
               d="m 104.336,38.914 h 1.039 v 5.172 l 3.09,-2.719 h 1.32 l -3.34,2.949 3.481,3.352 h -1.352 l -3.199,-3.078 v 3.078 h -1.039 z"
               style="fill:#000000;fill-opacity:1;fill-rule:nonzero;stroke:none"
               id="path627" />
            <path
               d="m 113.707,44.5 c -0.836,0 -1.418,0.098 -1.738,0.289 -0.324,0.191 -0.485,0.516 -0.485,0.977 0,0.367 0.121,0.66 0.36,0.879 0.246,0.214 0.574,0.32 0.992,0.32 0.57,0 1.031,-0.203 1.375,-0.606 0.351,-0.41 0.523,-0.953 0.523,-1.629 V 44.5 Z m 2.063,-0.426 v 3.594 h -1.036 v -0.957 c -0.234,0.383 -0.531,0.668 -0.882,0.851 -0.352,0.18 -0.782,0.27 -1.293,0.27 -0.645,0 -1.161,-0.18 -1.543,-0.539 -0.379,-0.367 -0.567,-0.852 -0.567,-1.457 0,-0.711 0.235,-1.246 0.707,-1.606 0.477,-0.359 1.188,-0.539 2.129,-0.539 h 1.449 V 43.59 c 0,-0.477 -0.156,-0.844 -0.472,-1.102 -0.309,-0.261 -0.75,-0.394 -1.317,-0.394 -0.359,0 -0.711,0.043 -1.05,0.129 -0.34,0.086 -0.668,0.215 -0.985,0.39 v -0.957 c 0.379,-0.148 0.746,-0.258 1.102,-0.328 0.359,-0.074 0.703,-0.113 1.043,-0.113 0.91,0 1.59,0.238 2.039,0.711 0.453,0.472 0.676,1.187 0.676,2.148 z"
               style="fill:#000000;fill-opacity:1;fill-rule:nonzero;stroke:none"
               id="path629" />
            <path
               d="m 122.047,44.445 c 0,-0.75 -0.156,-1.332 -0.465,-1.742 -0.309,-0.414 -0.742,-0.621 -1.301,-0.621 -0.554,0 -0.988,0.207 -1.301,0.621 -0.304,0.41 -0.46,0.992 -0.46,1.742 0,0.746 0.156,1.325 0.46,1.739 0.313,0.414 0.747,0.617 1.301,0.617 0.559,0 0.992,-0.203 1.301,-0.617 0.309,-0.414 0.465,-0.993 0.465,-1.739 z m 1.035,2.442 c 0,1.07 -0.238,1.867 -0.715,2.39 -0.476,0.524 -1.203,0.789 -2.187,0.789 -0.364,0 -0.707,-0.031 -1.028,-0.086 -0.324,-0.054 -0.636,-0.136 -0.941,-0.246 v -1.007 c 0.305,0.164 0.605,0.285 0.902,0.363 0.293,0.082 0.598,0.121 0.903,0.121 0.679,0 1.187,-0.18 1.527,-0.535 0.336,-0.352 0.504,-0.887 0.504,-1.606 v -0.511 c -0.211,0.371 -0.488,0.648 -0.82,0.836 -0.332,0.183 -0.735,0.273 -1.2,0.273 -0.769,0 -1.394,-0.293 -1.867,-0.883 -0.472,-0.59 -0.707,-1.367 -0.707,-2.34 0,-0.976 0.235,-1.757 0.707,-2.347 0.473,-0.586 1.098,-0.883 1.867,-0.883 0.465,0 0.868,0.094 1.2,0.277 0.332,0.184 0.609,0.461 0.82,0.832 v -0.957 h 1.035 z"
               style="fill:#000000;fill-opacity:1;fill-rule:nonzero;stroke:none"
               id="path631" />
            <path
               d="m 130.605,44.258 v 0.508 h -4.761 c 0.047,0.711 0.261,1.257 0.64,1.632 0.387,0.372 0.926,0.555 1.61,0.555 0.398,0 0.781,-0.047 1.152,-0.144 0.375,-0.098 0.75,-0.247 1.117,-0.442 v 0.981 c -0.371,0.156 -0.754,0.277 -1.144,0.359 -0.391,0.082 -0.785,0.125 -1.188,0.125 -1.004,0 -1.801,-0.293 -2.39,-0.879 -0.582,-0.586 -0.875,-1.375 -0.875,-2.371 0,-1.031 0.277,-1.852 0.832,-2.453 0.558,-0.609 1.308,-0.914 2.254,-0.914 0.847,0 1.519,0.273 2.007,0.824 0.496,0.543 0.746,1.281 0.746,2.219 z m -1.035,-0.301 c -0.008,-0.566 -0.168,-1.019 -0.48,-1.355 -0.309,-0.34 -0.715,-0.508 -1.227,-0.508 -0.578,0 -1.039,0.164 -1.386,0.488 -0.348,0.328 -0.547,0.785 -0.598,1.379 z"
               style="fill:#000000;fill-opacity:1;fill-rule:nonzero;stroke:none"
               id="path633" />
            <path
               d="m 136.32,41.555 v 0.976 c -0.293,-0.148 -0.597,-0.261 -0.914,-0.336 -0.312,-0.074 -0.64,-0.113 -0.976,-0.113 -0.516,0 -0.903,0.078 -1.16,0.238 -0.254,0.157 -0.383,0.391 -0.383,0.707 0,0.243 0.093,0.43 0.277,0.571 0.184,0.132 0.551,0.261 1.106,0.386 l 0.355,0.078 c 0.734,0.157 1.258,0.379 1.563,0.668 0.312,0.286 0.468,0.688 0.468,1.2 0,0.586 -0.234,1.047 -0.699,1.39 -0.461,0.34 -1.094,0.512 -1.906,0.512 -0.336,0 -0.688,-0.035 -1.055,-0.102 -0.367,-0.062 -0.75,-0.16 -1.156,-0.292 v -1.071 c 0.383,0.199 0.762,0.352 1.133,0.453 0.371,0.098 0.738,0.145 1.101,0.145 0.488,0 0.864,-0.082 1.125,-0.246 0.262,-0.168 0.395,-0.407 0.395,-0.711 0,-0.281 -0.098,-0.496 -0.289,-0.645 -0.188,-0.152 -0.602,-0.297 -1.243,-0.433 l -0.359,-0.086 c -0.641,-0.133 -1.105,-0.34 -1.391,-0.617 -0.285,-0.282 -0.425,-0.668 -0.425,-1.153 0,-0.594 0.211,-1.051 0.629,-1.375 0.422,-0.32 1.015,-0.484 1.789,-0.484 0.383,0 0.742,0.031 1.082,0.086 0.336,0.054 0.648,0.14 0.933,0.254 z"
               style="fill:#000000;fill-opacity:1;fill-rule:nonzero;stroke:none"
               id="path635" />
          </g>
        </g>
      </g>
    </clipPath>
    <clipPath
       clipPathUnits="userSpaceOnUse"
       id="clipPath660">
      <g
         id="g666">
        <g
           id="g664">
          <path
             d="M 0,0 H 207 V 116 H 0 Z"
             id="path662" />
        </g>
      </g>
    </clipPath>
    <clipPath
       clipPathUnits="userSpaceOnUse"
       id="clipPath679">
      <g
         id="g689">
        <g
           id="g687"
           clip-path="url(#clipPath164)">
          <g
             id="g685">
            <g
               id="g683">
              <path
                 d="m 4.895,29.281 h 198.546 c 2.129,0 3.84,1.711 3.84,3.84 v 21.117 c 0,2.129 -1.711,3.844 -3.84,3.844 H 4.895 c -2.125,0 -3.84,-1.715 -3.84,-3.844 V 33.121 c 0,-2.129 1.715,-3.84 3.84,-3.84 z"
                 style="fill:#79a7ce;fill-opacity:1;fill-rule:nonzero;stroke:#000000;stroke-width:0.96;stroke-linecap:butt;stroke-linejoin:miter;stroke-miterlimit:1.45;stroke-dasharray:none;stroke-opacity:1"
                 id="path681" />
            </g>
          </g>
        </g>
      </g>
    </clipPath>
    <clipPath
       clipPathUnits="userSpaceOnUse"
       id="clipPath702">
      <g
         id="g708">
        <g
           id="g706">
          <path
             d="M 0,0 H 207 V 116 H 0 Z"
             id="path704" />
        </g>
      </g>
    </clipPath>
    <clipPath
       clipPathUnits="userSpaceOnUse"
       id="clipPath727">
      <g
         id="g733">
        <g
           id="g731">
          <path
             d="M 0,0 H 207 V 116 H 0 Z"
             id="path729" />
        </g>
      </g>
    </clipPath>
    <clipPath
       clipPathUnits="userSpaceOnUse"
       id="clipPath753">
      <g
         id="g777">
        <g
           id="g775"
           clip-path="url(#clipPath134)">
          <g
             id="g773">
            <path
               d="m 24.863,14.93 c 0.242,0.082 0.481,0.261 0.711,0.531 0.231,0.269 0.465,0.641 0.696,1.113 l 1.152,2.293 H 26.203 L 25.129,16.715 C 24.852,16.152 24.582,15.777 24.316,15.594 24.059,15.41 23.703,15.32 23.254,15.32 h -1.238 v 3.547 h -1.133 v -8.398 h 2.562 c 0.961,0 1.676,0.203 2.149,0.601 0.472,0.403 0.711,1.008 0.711,1.821 0,0.527 -0.125,0.964 -0.371,1.316 -0.246,0.348 -0.602,0.59 -1.071,0.723 z m -2.847,-3.528 v 2.985 h 1.429 c 0.547,0 0.961,-0.129 1.239,-0.379 0.281,-0.254 0.421,-0.629 0.421,-1.117 0,-0.493 -0.14,-0.864 -0.421,-1.11 -0.278,-0.25 -0.692,-0.379 -1.239,-0.379 z"
               style="fill:#000000;fill-opacity:1;fill-rule:nonzero;stroke:none"
               id="path755" />
            <path
               d="m 32.855,12.754 v 0.98 c -0.293,-0.152 -0.593,-0.265 -0.91,-0.339 -0.316,-0.075 -0.64,-0.114 -0.98,-0.114 -0.512,0 -0.899,0.082 -1.156,0.239 -0.254,0.156 -0.383,0.394 -0.383,0.707 0,0.242 0.09,0.429 0.273,0.57 0.188,0.133 0.555,0.262 1.11,0.387 l 0.355,0.078 c 0.734,0.16 1.254,0.383 1.563,0.672 0.312,0.285 0.468,0.683 0.468,1.195 0,0.586 -0.234,1.051 -0.699,1.391 -0.461,0.339 -1.098,0.511 -1.906,0.511 -0.336,0 -0.692,-0.035 -1.059,-0.101 -0.363,-0.063 -0.746,-0.16 -1.152,-0.293 V 17.57 c 0.383,0.2 0.758,0.348 1.133,0.45 0.371,0.097 0.738,0.144 1.101,0.144 0.489,0 0.864,-0.082 1.125,-0.246 0.262,-0.168 0.395,-0.406 0.395,-0.711 0,-0.281 -0.098,-0.496 -0.289,-0.645 -0.188,-0.152 -0.602,-0.292 -1.242,-0.433 l -0.36,-0.086 c -0.64,-0.133 -1.105,-0.34 -1.39,-0.617 -0.286,-0.281 -0.426,-0.664 -0.426,-1.153 0,-0.593 0.207,-1.05 0.629,-1.375 0.418,-0.32 1.015,-0.48 1.789,-0.48 0.383,0 0.742,0.027 1.078,0.082 0.34,0.059 0.648,0.141 0.933,0.254 z"
               style="fill:#000000;fill-opacity:1;fill-rule:nonzero;stroke:none"
               id="path757" />
            <path
               d="m 35.867,10.781 v 1.785 h 2.129 v 0.805 h -2.129 v 3.422 c 0,0.512 0.067,0.844 0.207,0.988 0.141,0.149 0.43,0.223 0.86,0.223 h 1.062 v 0.863 h -1.062 c -0.797,0 -1.348,-0.148 -1.653,-0.441 -0.304,-0.301 -0.457,-0.844 -0.457,-1.633 v -3.422 h -0.758 v -0.805 h 0.758 v -1.785 z"
               style="fill:#000000;fill-opacity:1;fill-rule:nonzero;stroke:none"
               id="path759" />
            <path
               d="m 39.254,16.383 v -3.817 h 1.035 v 3.778 c 0,0.594 0.113,1.043 0.348,1.344 0.23,0.296 0.582,0.445 1.047,0.445 0.558,0 1,-0.18 1.32,-0.535 0.328,-0.356 0.488,-0.844 0.488,-1.457 v -3.575 h 1.035 v 6.301 h -1.035 v -0.965 c -0.25,0.383 -0.543,0.664 -0.875,0.852 -0.332,0.187 -0.715,0.277 -1.152,0.277 -0.727,0 -1.274,-0.226 -1.649,-0.676 -0.375,-0.449 -0.562,-1.105 -0.562,-1.972 z"
               style="fill:#000000;fill-opacity:1;fill-rule:nonzero;stroke:none"
               id="path761" />
            <path
               d="m 50.805,13.523 v -3.406 h 1.035 v 8.75 h -1.035 v -0.945 c -0.215,0.375 -0.493,0.656 -0.825,0.84 -0.332,0.179 -0.73,0.269 -1.195,0.269 -0.758,0 -1.379,-0.304 -1.859,-0.91 -0.477,-0.609 -0.715,-1.406 -0.715,-2.398 0,-0.989 0.238,-1.789 0.715,-2.395 0.48,-0.609 1.101,-0.91 1.859,-0.91 0.465,0 0.863,0.09 1.195,0.273 0.332,0.18 0.61,0.457 0.825,0.832 z m -3.528,2.2 c 0,0.761 0.157,1.359 0.469,1.797 0.316,0.429 0.746,0.644 1.293,0.644 0.547,0 0.981,-0.215 1.293,-0.644 0.316,-0.438 0.473,-1.036 0.473,-1.797 0,-0.762 -0.157,-1.356 -0.473,-1.789 -0.312,-0.434 -0.746,-0.653 -1.293,-0.653 -0.547,0 -0.977,0.219 -1.293,0.653 -0.312,0.433 -0.469,1.027 -0.469,1.789 z"
               style="fill:#000000;fill-opacity:1;fill-rule:nonzero;stroke:none"
               id="path763" />
            <path
               d="m 53.973,12.566 h 1.035 v 6.301 h -1.035 z m 0,-2.449 h 1.035 v 1.309 h -1.035 z"
               style="fill:#000000;fill-opacity:1;fill-rule:nonzero;stroke:none"
               id="path765" />
            <path
               d="m 59.613,13.293 c -0.554,0 -0.992,0.219 -1.316,0.652 -0.32,0.434 -0.481,1.024 -0.481,1.778 0,0.754 0.157,1.347 0.477,1.785 0.324,0.43 0.762,0.644 1.32,0.644 0.555,0 0.989,-0.214 1.313,-0.652 0.32,-0.434 0.484,-1.027 0.484,-1.777 0,-0.746 -0.164,-1.336 -0.484,-1.77 -0.324,-0.441 -0.758,-0.66 -1.313,-0.66 z m 0,-0.875 c 0.903,0 1.61,0.289 2.121,0.875 0.516,0.586 0.774,1.395 0.774,2.43 0,1.031 -0.258,1.843 -0.774,2.429 -0.511,0.586 -1.218,0.879 -2.121,0.879 -0.902,0 -1.609,-0.293 -2.125,-0.879 -0.508,-0.586 -0.765,-1.398 -0.765,-2.429 0,-1.035 0.257,-1.844 0.765,-2.43 0.516,-0.586 1.223,-0.875 2.125,-0.875 z"
               style="fill:#000000;fill-opacity:1;fill-rule:nonzero;stroke:none"
               id="path767" />
            <path
               d="m 70.094,18.867 -3.207,-8.398 h 1.187 l 2.66,7.07 2.668,-7.07 h 1.18 l -3.199,8.398 z"
               style="fill:#000000;fill-opacity:1;fill-rule:nonzero;stroke:none"
               id="path769" />
            <path
               d="m 76.105,17.91 h 1.86 v -6.406 l -2.02,0.406 v -1.035 l 2.008,-0.406 h 1.137 v 7.441 h 1.855 v 0.957 h -4.84 z"
               style="fill:#000000;fill-opacity:1;fill-rule:nonzero;stroke:none"
               id="path771" />
          </g>
        </g>
      </g>
    </clipPath>
  </defs>
  <sodipodi:namedview
     id="namedview4"
     pagecolor="#ffffff"
     bordercolor="#000000"
     borderopacity="0.25"
     inkscape:showpageshadow="2"
     inkscape:pageopacity="0.0"
     inkscape:pagecheckerboard="0"
     inkscape:deskcolor="#d1d1d1"
     showgrid="false">
    <inkscape:page
       x="0"
       y="0"
       id="page8"
       width="277.01465"
       height="154.87866" />
  </sodipodi:namedview>
  <g
     id="g10"
     inkscape:groupmode="layer"
     inkscape:label="Page 1"
     transform="scale(1.3333333)">
    <g
       id="g739"
       clip-path="url(#clipPath753)">
      <g
         id="g529">
        <path
           d="M 0,0 H 207 V 116 H 0 Z"
           id="path527" />
      </g>
    </g>
    <g
       id="g672"
       clip-path="url(#clipPath679)">
      <g
         id="g523">
        <path
           d="M 0,0 H 207 V 116 H 0 Z"
           id="path521" />
      </g>
    </g>
    <g
       id="g603"
       clip-path="url(#clipPath617)">
      <g
         id="g517">
        <path
           d="M 0,0 H 207 V 116 H 0 Z"
           id="path515" />
      </g>
    </g>
    <g
       id="g12" />
    <g
       id="g24"
       clip-path="url(#clipPath591)">
      <g
         id="g26"
         clip-path="url(#clipPath30)">
        <g
           id="g32">
          <g
             id="g34">
            <path
               d="m 4.605,58.082 h 198.551 c 2.125,0 3.84,1.711 3.84,3.84 v 21.117 c 0,2.129 -1.715,3.84 -3.84,3.84 H 4.605 c -2.125,0 -3.839,-1.711 -3.839,-3.84 V 61.922 c 0,-2.129 1.714,-3.84 3.839,-3.84 z"
               style="fill:#afafaf;fill-opacity:1;fill-rule:nonzero;stroke:#000000;stroke-width:0.96;stroke-linecap:butt;stroke-linejoin:miter;stroke-miterlimit:1.45;stroke-dasharray:none;stroke-opacity:1"
               id="path36" />
          </g>
        </g>
      </g>
    </g>
    <g
       id="g40"
       clip-path="url(#clipPath660)">
      <g
         id="g42"
         clip-path="url(#clipPath46)">
        <g
           id="g48">
          <path
             d="m 77.574,68.84 c -0.824,0 -1.48,0.308 -1.969,0.922 -0.48,0.617 -0.722,1.453 -0.722,2.515 0,1.059 0.242,1.895 0.722,2.508 0.489,0.617 1.145,0.922 1.969,0.922 0.828,0 1.481,-0.305 1.957,-0.922 0.485,-0.613 0.727,-1.449 0.727,-2.508 0,-1.062 -0.242,-1.898 -0.727,-2.515 -0.476,-0.614 -1.129,-0.922 -1.957,-0.922 z m 0,-0.922 c 1.18,0 2.121,0.394 2.824,1.187 0.707,0.79 1.059,1.844 1.059,3.172 0,1.325 -0.352,2.383 -1.059,3.172 -0.703,0.789 -1.644,1.184 -2.824,1.184 -1.179,0 -2.125,-0.395 -2.832,-1.184 -0.707,-0.785 -1.058,-1.844 -1.058,-3.172 0,-1.328 0.351,-2.382 1.058,-3.172 0.707,-0.793 1.653,-1.187 2.832,-1.187 z"
             style="fill:#ffffff;fill-opacity:1;fill-rule:nonzero;stroke:none"
             id="path50" />
          <path
             d="m 88.27,68.348 v 1.105 c -0.434,-0.207 -0.84,-0.359 -1.223,-0.461 -0.383,-0.101 -0.75,-0.152 -1.106,-0.152 -0.621,0 -1.097,0.121 -1.437,0.359 -0.332,0.242 -0.5,0.582 -0.5,1.024 0,0.375 0.113,0.656 0.332,0.843 0.226,0.188 0.648,0.34 1.273,0.457 l 0.684,0.141 c 0.848,0.16 1.473,0.445 1.875,0.856 0.406,0.406 0.605,0.949 0.605,1.632 0,0.813 -0.273,1.43 -0.82,1.848 -0.543,0.422 -1.344,0.633 -2.394,0.633 -0.399,0 -0.825,-0.047 -1.274,-0.137 -0.445,-0.09 -0.91,-0.223 -1.387,-0.398 v -1.172 c 0.461,0.262 0.911,0.453 1.356,0.586 0.441,0.133 0.875,0.195 1.305,0.195 0.648,0 1.148,-0.125 1.5,-0.379 0.351,-0.258 0.531,-0.621 0.531,-1.094 0,-0.41 -0.129,-0.734 -0.383,-0.964 -0.254,-0.235 -0.668,-0.411 -1.246,-0.524 L 85.27,72.609 c -0.848,-0.168 -1.461,-0.433 -1.84,-0.793 -0.379,-0.359 -0.567,-0.859 -0.567,-1.5 0,-0.746 0.262,-1.328 0.782,-1.757 0.527,-0.426 1.246,-0.641 2.167,-0.641 0.391,0 0.793,0.035 1.204,0.105 0.406,0.075 0.824,0.18 1.254,0.325 z"
             style="fill:#ffffff;fill-opacity:1;fill-rule:nonzero;stroke:none"
             id="path52" />
          <path
             d="m 98.18,70.355 v 0.977 c -0.293,-0.148 -0.598,-0.262 -0.91,-0.336 -0.317,-0.074 -0.641,-0.113 -0.981,-0.113 -0.512,0 -0.898,0.078 -1.156,0.234 -0.258,0.16 -0.383,0.395 -0.383,0.711 0,0.238 0.09,0.43 0.273,0.567 0.184,0.136 0.555,0.265 1.11,0.39 l 0.355,0.078 c 0.735,0.157 1.254,0.379 1.563,0.668 0.312,0.285 0.465,0.684 0.465,1.199 0,0.586 -0.231,1.047 -0.696,1.391 -0.461,0.34 -1.097,0.512 -1.906,0.512 -0.34,0 -0.691,-0.035 -1.059,-0.102 -0.363,-0.066 -0.746,-0.164 -1.152,-0.293 v -1.07 c 0.383,0.199 0.758,0.352 1.129,0.449 0.371,0.098 0.738,0.149 1.106,0.149 0.484,0 0.859,-0.082 1.124,-0.246 0.262,-0.172 0.391,-0.407 0.391,-0.711 0,-0.282 -0.094,-0.497 -0.285,-0.649 -0.188,-0.148 -0.602,-0.293 -1.242,-0.43 l -0.364,-0.085 c -0.64,-0.137 -1.101,-0.34 -1.386,-0.618 -0.285,-0.281 -0.43,-0.668 -0.43,-1.156 0,-0.59 0.211,-1.047 0.633,-1.371 0.418,-0.324 1.016,-0.484 1.789,-0.484 0.379,0 0.742,0.027 1.078,0.086 0.336,0.054 0.649,0.14 0.934,0.253 z"
             style="fill:#ffffff;fill-opacity:1;fill-rule:nonzero;stroke:none"
             id="path54" />
          <path
             d="m 102.785,77.055 c -0.289,0.75 -0.574,1.238 -0.851,1.465 -0.278,0.23 -0.653,0.343 -1.118,0.343 H 99.992 V 78 h 0.606 c 0.285,0 0.507,-0.07 0.664,-0.203 0.16,-0.137 0.332,-0.453 0.523,-0.957 l 0.188,-0.473 -2.551,-6.199 h 1.098 l 1.968,4.93 1.969,-4.93 h 1.098 z"
             style="fill:#ffffff;fill-opacity:1;fill-rule:nonzero;stroke:none"
             id="path56" />
          <path
             d="m 111,70.355 v 0.977 c -0.293,-0.148 -0.598,-0.262 -0.91,-0.336 -0.317,-0.074 -0.645,-0.113 -0.981,-0.113 -0.515,0 -0.898,0.078 -1.16,0.234 -0.254,0.16 -0.383,0.395 -0.383,0.711 0,0.238 0.094,0.43 0.278,0.567 0.183,0.136 0.554,0.265 1.109,0.39 l 0.352,0.078 c 0.738,0.157 1.257,0.379 1.566,0.668 0.309,0.285 0.465,0.684 0.465,1.199 0,0.586 -0.231,1.047 -0.695,1.391 -0.461,0.34 -1.098,0.512 -1.907,0.512 -0.339,0 -0.691,-0.035 -1.058,-0.102 -0.364,-0.066 -0.75,-0.164 -1.153,-0.293 v -1.07 c 0.383,0.199 0.758,0.352 1.129,0.449 0.371,0.098 0.739,0.149 1.102,0.149 0.488,0 0.863,-0.082 1.125,-0.246 0.262,-0.172 0.394,-0.407 0.394,-0.711 0,-0.282 -0.093,-0.497 -0.285,-0.649 -0.187,-0.148 -0.601,-0.293 -1.246,-0.43 l -0.359,-0.085 c -0.641,-0.137 -1.102,-0.34 -1.387,-0.618 -0.285,-0.281 -0.43,-0.668 -0.43,-1.156 0,-0.59 0.211,-1.047 0.629,-1.371 0.422,-0.324 1.02,-0.484 1.789,-0.484 0.383,0 0.743,0.027 1.082,0.086 0.336,0.054 0.649,0.14 0.934,0.253 z"
             style="fill:#ffffff;fill-opacity:1;fill-rule:nonzero;stroke:none"
             id="path58" />
          <path
             d="m 114.008,68.379 v 1.789 h 2.133 v 0.805 h -2.133 v 3.422 c 0,0.511 0.07,0.843 0.211,0.988 0.14,0.144 0.426,0.219 0.859,0.219 h 1.063 v 0.867 h -1.063 c -0.801,0 -1.351,-0.149 -1.656,-0.446 -0.301,-0.3 -0.453,-0.843 -0.453,-1.628 v -3.422 h -0.762 v -0.805 h 0.762 v -1.789 z"
             style="fill:#ffffff;fill-opacity:1;fill-rule:nonzero;stroke:none"
             id="path60" />
          <path
             d="m 122.891,73.059 v 0.507 h -4.758 c 0.043,0.711 0.258,1.254 0.64,1.629 0.387,0.371 0.922,0.559 1.61,0.559 0.398,0 0.781,-0.047 1.152,-0.145 0.375,-0.097 0.746,-0.246 1.113,-0.441 v 0.98 c -0.371,0.157 -0.75,0.278 -1.14,0.36 -0.391,0.082 -0.785,0.125 -1.188,0.125 -1.004,0 -1.8,-0.293 -2.39,-0.879 -0.586,-0.586 -0.879,-1.375 -0.879,-2.375 0,-1.031 0.277,-1.848 0.832,-2.453 0.558,-0.606 1.312,-0.91 2.258,-0.91 0.847,0 1.515,0.273 2.007,0.82 0.497,0.547 0.743,1.285 0.743,2.223 z m -1.036,-0.305 c -0.007,-0.563 -0.167,-1.016 -0.476,-1.356 -0.309,-0.336 -0.719,-0.503 -1.227,-0.503 -0.578,0 -1.043,0.164 -1.39,0.488 -0.344,0.328 -0.543,0.785 -0.598,1.379 z"
             style="fill:#ffffff;fill-opacity:1;fill-rule:nonzero;stroke:none"
             id="path62" />
          <path
             d="m 129.496,71.379 c 0.258,-0.465 0.566,-0.809 0.926,-1.031 0.359,-0.219 0.785,-0.332 1.273,-0.332 0.657,0 1.16,0.23 1.516,0.691 0.359,0.457 0.535,1.109 0.535,1.957 v 3.805 h -1.039 v -3.77 c 0,-0.601 -0.109,-1.051 -0.32,-1.344 -0.215,-0.293 -0.543,-0.437 -0.981,-0.437 -0.535,0 -0.961,0.176 -1.269,0.531 -0.313,0.36 -0.469,0.844 -0.469,1.457 v 3.563 h -1.039 v -3.77 c 0,-0.605 -0.109,-1.054 -0.32,-1.344 -0.215,-0.293 -0.543,-0.437 -0.993,-0.437 -0.527,0 -0.949,0.18 -1.257,0.539 -0.313,0.355 -0.469,0.84 -0.469,1.449 v 3.563 h -1.039 v -6.301 h 1.039 v 0.98 c 0.238,-0.386 0.519,-0.671 0.851,-0.855 0.329,-0.184 0.719,-0.277 1.176,-0.277 0.457,0 0.844,0.117 1.164,0.347 0.321,0.235 0.559,0.571 0.715,1.016 z"
             style="fill:#ffffff;fill-opacity:1;fill-rule:nonzero;stroke:none"
             id="path64" />
        </g>
      </g>
    </g>
    <g
       id="g68"
       clip-path="url(#clipPath572)">
      <g
         id="g70"
         clip-path="url(#clipPath74)">
        <g
           id="g76">
          <g
             id="g78">
            <path
               d="m 4.605,86.879 h 198.551 c 2.125,0 3.84,1.715 3.84,3.84 v 21.121 c 0,2.129 -1.715,3.84 -3.84,3.84 H 4.605 c -2.125,0 -3.839,-1.711 -3.839,-3.84 V 90.719 c 0,-2.125 1.714,-3.84 3.839,-3.84 z"
               style="fill:#373737;fill-opacity:1;fill-rule:nonzero;stroke:#000000;stroke-width:0.96;stroke-linecap:butt;stroke-linejoin:miter;stroke-miterlimit:1.45;stroke-dasharray:none;stroke-opacity:1"
               id="path80" />
          </g>
        </g>
      </g>
    </g>
    <g
       id="g84"
       clip-path="url(#clipPath727)">
      <g
         id="g86"
         clip-path="url(#clipPath90)">
        <g
           id="g92">
          <path
             d="m 82.668,97.516 v 1.199 c -0.383,-0.356 -0.793,-0.621 -1.227,-0.797 -0.433,-0.18 -0.89,-0.266 -1.379,-0.266 -0.96,0 -1.695,0.293 -2.207,0.883 -0.507,0.586 -0.761,1.434 -0.761,2.543 0,1.106 0.254,1.953 0.761,2.543 0.512,0.586 1.247,0.875 2.207,0.875 0.489,0 0.946,-0.086 1.379,-0.262 0.434,-0.175 0.844,-0.445 1.227,-0.8 v 1.187 c -0.398,0.27 -0.82,0.473 -1.266,0.609 -0.445,0.133 -0.914,0.2 -1.406,0.2 -1.273,0 -2.273,-0.387 -3.004,-1.164 -0.734,-0.778 -1.097,-1.84 -1.097,-3.188 0,-1.351 0.363,-2.414 1.097,-3.191 0.731,-0.778 1.731,-1.168 3.004,-1.168 0.5,0 0.973,0.066 1.414,0.203 0.449,0.129 0.867,0.328 1.258,0.594 z"
             style="fill:#ffffff;fill-opacity:1;fill-rule:nonzero;stroke:none"
             id="path94" />
          <path
             d="m 86.816,99.695 c -0.554,0 -0.992,0.215 -1.316,0.653 -0.32,0.429 -0.484,1.023 -0.484,1.777 0,0.754 0.16,1.348 0.48,1.781 0.32,0.434 0.762,0.649 1.32,0.649 0.551,0 0.989,-0.219 1.313,-0.653 0.32,-0.437 0.484,-1.027 0.484,-1.777 0,-0.746 -0.164,-1.34 -0.484,-1.773 -0.324,-0.438 -0.762,-0.657 -1.313,-0.657 z m 0,-0.879 c 0.903,0 1.61,0.293 2.122,0.879 0.515,0.582 0.769,1.395 0.769,2.43 0,1.031 -0.254,1.84 -0.769,2.43 -0.512,0.586 -1.219,0.875 -2.122,0.875 -0.902,0 -1.613,-0.289 -2.125,-0.875 -0.511,-0.59 -0.765,-1.399 -0.765,-2.43 0,-1.035 0.254,-1.848 0.765,-2.43 0.512,-0.586 1.223,-0.879 2.125,-0.879 z"
             style="fill:#ffffff;fill-opacity:1;fill-rule:nonzero;stroke:none"
             id="path96" />
          <path
             d="m 96.328,100.176 c 0.262,-0.465 0.57,-0.805 0.93,-1.028 0.359,-0.222 0.785,-0.332 1.269,-0.332 0.657,0 1.164,0.231 1.52,0.692 0.355,0.457 0.535,1.109 0.535,1.957 v 3.805 h -1.039 v -3.77 c 0,-0.605 -0.109,-1.051 -0.324,-1.344 -0.211,-0.293 -0.539,-0.441 -0.977,-0.441 -0.535,0 -0.961,0.18 -1.273,0.535 -0.309,0.355 -0.465,0.844 -0.465,1.457 v 3.563 h -1.039 v -3.77 c 0,-0.609 -0.11,-1.055 -0.324,-1.344 -0.211,-0.293 -0.543,-0.441 -0.989,-0.441 -0.527,0 -0.949,0.18 -1.261,0.543 -0.309,0.355 -0.465,0.84 -0.465,1.449 v 3.563 h -1.039 v -6.301 h 1.039 v 0.976 c 0.234,-0.383 0.519,-0.668 0.847,-0.851 0.332,-0.184 0.723,-0.278 1.176,-0.278 0.457,0 0.848,0.118 1.164,0.348 0.325,0.234 0.563,0.57 0.715,1.012 z"
             style="fill:#ffffff;fill-opacity:1;fill-rule:nonzero;stroke:none"
             id="path98" />
          <path
             d="m 103.648,104.324 v 3.34 h -1.043 v -8.695 h 1.043 v 0.957 c 0.215,-0.375 0.493,-0.653 0.821,-0.832 0.332,-0.184 0.73,-0.278 1.191,-0.278 0.766,0 1.387,0.305 1.863,0.911 0.481,0.609 0.719,1.406 0.719,2.398 0,0.988 -0.238,1.789 -0.719,2.395 -0.476,0.609 -1.097,0.91 -1.863,0.91 -0.461,0 -0.859,-0.09 -1.191,-0.27 -0.328,-0.183 -0.606,-0.461 -0.821,-0.836 z m 3.52,-2.199 c 0,-0.762 -0.156,-1.359 -0.473,-1.789 -0.308,-0.438 -0.738,-0.652 -1.289,-0.652 -0.547,0 -0.976,0.214 -1.293,0.652 -0.308,0.43 -0.465,1.027 -0.465,1.789 0,0.762 0.157,1.359 0.465,1.793 0.317,0.43 0.746,0.648 1.293,0.648 0.551,0 0.981,-0.218 1.289,-0.648 0.317,-0.434 0.473,-1.031 0.473,-1.793 z"
             style="fill:#ffffff;fill-opacity:1;fill-rule:nonzero;stroke:none"
             id="path100" />
          <path
             d="m 109.852,102.781 v -3.812 h 1.035 v 3.773 c 0,0.598 0.117,1.043 0.347,1.344 0.235,0.297 0.582,0.445 1.047,0.445 0.559,0 1,-0.179 1.324,-0.535 0.325,-0.355 0.489,-0.84 0.489,-1.457 v -3.57 h 1.035 v 6.301 h -1.035 v -0.969 c -0.25,0.383 -0.543,0.668 -0.879,0.855 -0.328,0.184 -0.715,0.274 -1.153,0.274 -0.722,0 -1.273,-0.223 -1.648,-0.672 -0.375,-0.453 -0.562,-1.11 -0.562,-1.977 z"
             style="fill:#ffffff;fill-opacity:1;fill-rule:nonzero;stroke:none"
             id="path102" />
          <path
             d="m 118.285,97.18 v 1.789 h 2.129 v 0.804 h -2.129 v 3.418 c 0,0.516 0.067,0.844 0.207,0.993 0.141,0.144 0.43,0.218 0.86,0.218 h 1.062 v 0.868 h -1.062 c -0.797,0 -1.348,-0.149 -1.653,-0.446 -0.304,-0.301 -0.457,-0.844 -0.457,-1.633 v -3.418 h -0.758 v -0.804 h 0.758 V 97.18 Z"
             style="fill:#ffffff;fill-opacity:1;fill-rule:nonzero;stroke:none"
             id="path104" />
          <path
             d="m 127.164,101.859 v 0.508 h -4.758 c 0.047,0.711 0.258,1.254 0.641,1.629 0.387,0.371 0.922,0.559 1.609,0.559 0.399,0 0.782,-0.051 1.153,-0.149 0.375,-0.097 0.746,-0.242 1.113,-0.437 v 0.98 c -0.371,0.156 -0.75,0.278 -1.141,0.36 -0.39,0.082 -0.785,0.121 -1.187,0.121 -1.004,0 -1.801,-0.289 -2.391,-0.875 -0.582,-0.586 -0.875,-1.379 -0.875,-2.375 0,-1.032 0.277,-1.848 0.832,-2.453 0.559,-0.606 1.309,-0.911 2.254,-0.911 0.848,0 1.52,0.274 2.008,0.821 0.496,0.543 0.742,1.285 0.742,2.222 z m -1.035,-0.304 c -0.004,-0.567 -0.164,-1.016 -0.477,-1.356 -0.308,-0.336 -0.714,-0.504 -1.226,-0.504 -0.578,0 -1.039,0.16 -1.391,0.489 -0.344,0.324 -0.543,0.785 -0.594,1.378 z"
             style="fill:#ffffff;fill-opacity:1;fill-rule:nonzero;stroke:none"
             id="path106" />
          <path
             d="m 132.516,99.938 c -0.118,-0.071 -0.246,-0.118 -0.383,-0.149 -0.137,-0.035 -0.285,-0.051 -0.449,-0.051 -0.586,0 -1.036,0.192 -1.352,0.574 -0.312,0.379 -0.465,0.926 -0.465,1.637 v 3.321 h -1.043 v -6.301 h 1.043 v 0.976 c 0.215,-0.379 0.5,-0.664 0.848,-0.847 0.347,-0.188 0.773,-0.282 1.269,-0.282 0.075,0 0.153,0.004 0.239,0.016 0.086,0.008 0.183,0.023 0.285,0.039 z"
             style="fill:#ffffff;fill-opacity:1;fill-rule:nonzero;stroke:none"
             id="path108" />
        </g>
      </g>
    </g>
    <g
       id="g112"
       clip-path="url(#clipPath702)">
      <g
         id="g114"
         clip-path="url(#clipPath118)">
        <g
           id="g120">
          <g
             id="g122">
            <path
               d="m 4.32,0.48 h 93.118 c 2.128,0 3.843,1.711 3.843,3.84 v 21.121 c 0,2.125 -1.715,3.84 -3.843,3.84 H 4.32 c -2.129,0 -3.84,-1.715 -3.84,-3.84 V 4.32 c 0,-2.129 1.711,-3.84 3.84,-3.84 z"
               style="fill:#79a7ce;fill-opacity:1;fill-rule:nonzero;stroke:#000000;stroke-width:0.96;stroke-linecap:butt;stroke-linejoin:miter;stroke-miterlimit:1.45;stroke-dasharray:none;stroke-opacity:1"
               id="path124" />
          </g>
        </g>
      </g>
    </g>
  </g>
</svg>
